<svg xmlns="http://www.w3.org/2000/svg" width="1000" height="201.5933" viewBox="0 0 1000 201.5933"><path d="M36.4743.7593H0v198.55H36.4743Z"/><path d="M196.8091,56.2942V199.311H160.3345V188.66c-12.1582,7.6073-25.8355,12.9329-41.793,12.9329-44.8335,0-70.6692-35.7546-70.6692-73.7908s26.596-73.79,70.6692-73.79a78.9786,78.9786,0,0,1,41.793,12.1716v-9.89ZM160.3345,98.8948A54.1517,54.1517,0,0,0,125.38,86.723c-25.8355,0-42.5533,19.7791-42.5533,41.0795s16.7178,41.08,42.5533,41.08c13.678,0,26.5958-4.5646,34.9547-12.1718Z"/><path d="M894.38,137.6921c3.8015,19.0181,19,31.95,41.0313,31.95,15.1986,0,28.8782-6.8462,36.4738-17.4968l23.5576,19.7791c-12.9164,18.2578-36.4738,29.6687-64.5889,29.6687-43.3135,0-72.9477-32.7113-72.9477-73.7908s29.6342-73.79,72.9477-73.79c44.0769,0,69.1463,31.9506,69.1463,76.0727v8.3683H894.38Zm.7632-23.5828h70.6654c-1.5191-15.9748-9.8781-31.95-34.1916-31.95C911.8537,82.1591,898.1814,96.6125,895.1431,114.1093Z"/><path d="M701.37,171.9225c-12.9177,17.4968-33.4348,28.9076-55.471,28.9076-43.3129,0-78.2677-32.7112-78.2677-73.79s34.9548-73.7908,78.2677-73.7908c22.7965,0,42.5533,11.4109,55.471,28.1467L677.814,103.4573a38.3112,38.3112,0,0,0-31.9149-17.4968c-22.7966,0-41.7938,18.2571-41.7938,41.08,0,22.0608,18.9972,41.0789,41.7938,41.0789a38.3114,38.3114,0,0,0,31.9149-17.4968Z"/><path d="M847.2648,119.4328v79.876H810.791v-79.876c0-22.0614-10.634-32.7113-31.1533-32.7113-12.9163,0-23.5575,3.8036-31.9164,10.65V199.3088H711.2482V.7593h36.4731V63.9c10.6412-6.8466,23.5575-9.8894,37.993-9.8894C828.2719,54.01,847.2648,73.0284,847.2648,119.4328Z"/><path d="M402.7359,1.5222H366.2621v198.55h36.4738Z"/><path d="M315.35,87.4833h38.754V57.0545H315.35V55.5331c0-15.2146,3.04-24.3433,24.3163-24.3433a85.36,85.36,0,0,1,15.198,1.5215V5.3251C352.584,4.5644,341.1861,0,322.9492,0c-24.3164,0-44.8335,12.1717-44.8335,47.9258v9.1287H258.3589V87.4833h19.7568v99.6558c0,5.3249,0,9.8888-.76,13.6925H314.59V87.4833Z"/><path d="M521.2788,114.1072H450.6106c3.039-17.4968,16.717-31.95,36.4738-31.95A50.5079,50.5079,0,0,1,503.8022,85.2l20.5164-22.8216a79.1735,79.1735,0,0,0-37.2342-9.1287c-43.3129,0-72.9484,32.7113-72.9484,73.7908s29.6355,73.79,72.9484,73.79c28.1157,0,51.6718-11.4108,64.59-29.6679l-23.5568-19.0188c-7.5987,10.65-22.0363,17.4968-36.4739,17.4968-22.0369,0-36.4746-12.9322-41.0334-31.95H556.2335v-8.3683a96.0345,96.0345,0,0,0-9.878-43.3611Z"/><path d="M566.8719,63.14,520.5192,9.8891H477.2056L524.3186,63.14Z"/></svg>