<?xml version="1.0" encoding="utf-8"?>
<!-- Generator: Adobe Illustrator 25.0.0, SVG Export Plug-In . SVG Version: 6.00 Build 0)  -->
<svg version="1.1" id="Layer_1" xmlns="http://www.w3.org/2000/svg" xmlns:xlink="http://www.w3.org/1999/xlink" x="0px" y="0px"
	 viewBox="0 0 214 108" style="enable-background:new 0 0 214 108;" xml:space="preserve">
<style type="text/css">
	.st0{fill:#002D62;}
	.st1{fill:#00A7CA;}
</style>
<g>
	<g>
		<path class="st0" d="M83.2177277,76.8270111l3.1997986-8.2962952h1.5764999l3.2234192,8.2962952h-1.5524368L89.0368576,75.20327
			h-3.6503525l-0.6045227,1.6237411H83.2177277z M87.2114639,70.071785l-1.3984604,3.8988113h2.7851105L87.2114639,70.071785z"/>
		<path class="st0" d="M92.7913208,74.9189377c0.1539688,0.59272,0.7344437,0.865242,1.2799149,0.865242
			c0.4264984,0,0.9006729-0.1539764,0.9006729-0.6281509c0-0.3083878-0.2843323-0.4859848-0.6517715-0.6399612l-0.8770523-0.3320084
			c-1.1972427-0.4501114-1.5051956-1.125946-1.5051956-1.6709824c0-1.1141357,0.9479141-1.8131485,2.1923981-1.8131485
			c0.7585068,0,1.7068558,0.2607117,2.0979156,1.338974l-1.1736221,0.4269333
			c-0.1539764-0.4859848-0.5922852-0.6163406-0.9124832-0.6163406c-0.3792496,0-0.7821198,0.213028-0.7821198,0.6281509
			c0,0.3315735,0.2961349,0.4977951,0.6281509,0.6158981l0.888855,0.3201981
			c1.2799149,0.4264984,1.5288162,1.1968079,1.5288162,1.7186661c0,1.1849976-1.1023254,1.8249588-2.3463745,1.8249588
			c-0.9719696,0-2.0742874-0.4028778-2.4181137-1.5524445L92.7913208,74.9189377z"/>
		<path class="st0" d="M98.3125534,74.9189377c0.1539764,0.59272,0.7344437,0.865242,1.2799225,0.865242
			c0.4264908,0,0.9006653-0.1539764,0.9006653-0.6281509c0-0.3083878-0.2843246-0.4859848-0.6517715-0.6399612l-0.8770447-0.3320084
			c-1.1972427-0.4501114-1.5051956-1.125946-1.5051956-1.6709824c0-1.1141357,0.9479141-1.8131485,2.1923981-1.8131485
			c0.7585068,0,1.7068481,0.2607117,2.0979156,1.338974l-1.1736298,0.4269333
			c-0.1539688-0.4859848-0.5922775-0.6163406-0.9124756-0.6163406c-0.3792496,0-0.7821274,0.213028-0.7821274,0.6281509
			c0,0.3315735,0.2961426,0.4977951,0.6281509,0.6158981l0.8888626,0.3201981
			c1.2799149,0.4264984,1.5288162,1.1968079,1.5288162,1.7186661c0,1.1849976-1.1023254,1.8249588-2.3463745,1.8249588
			c-0.9719696,0-2.074295-0.4028778-2.4181137-1.5524445L98.3125534,74.9189377z"/>
		<path class="st0" d="M105.925148,70.6999283c1.7540894,0,3.2588501,1.4102783,3.2588501,3.1285019
			c0,1.7304688-1.5047607,3.1289368-3.2588501,3.1289368c-1.7304764,0-3.2474823-1.3866577-3.2474823-3.1289368
			C102.6776657,72.0983963,104.1946716,70.6999283,105.925148,70.6999283z M105.925148,75.7128754
			c1.0192108,0,1.7895203-0.8293686,1.7895203-1.8844452c0-1.0428314-0.7703094-1.8844452-1.7895203-1.8844452
			c-1.0074005,0-1.7777176,0.8298035-1.7777176,1.8844452C104.1474304,74.8835068,104.9177475,75.7128754,105.925148,75.7128754z"/>
		<path class="st0" d="M113.421814,70.6999283c0.5809097,0,1.3866501,0.1303558,2.3113785,0.805748l-0.6762619,1.0428314
			c-0.6159058-0.5096054-1.3385391-0.5450363-1.5642548-0.5450363c-1.1609344,0-1.9789276,0.7466965-1.9789276,1.8249588
			c0,1.0668869,0.8179932,1.8253937,1.9789276,1.8253937c0.2257156,0,0.948349-0.0476837,1.5642548-0.5454788l0.6762619,1.0314636
			c-0.9247284,0.6872025-1.7304688,0.8175583-2.3113785,0.8175583c-2.0856628,0-3.3778305-1.3512268-3.3778305-3.093071
			C110.0439835,72.0861435,111.3002777,70.6999283,113.421814,70.6999283z"/>
		<path class="st0" d="M117.5441513,68.1278458c0.5450363,0,0.9719696,0.4028702,0.9719696,0.9242859
			c0,0.5218582-0.4269333,0.9129181-0.9719696,0.9129181s-0.9474716-0.3910599-0.9474716-0.9129181
			C116.5966797,68.5307159,116.999115,68.1278458,117.5441513,68.1278458z M116.8092728,76.8270111v-5.996727h1.4583893v5.996727
			H116.8092728z"/>
		<path class="st0" d="M125.9673004,70.8302841v5.996727h-1.4583893v-0.9006653
			c-0.4260635,0.6517639-1.1731873,1.0310211-2.0497971,1.0310211c-1.7777176,0-2.9395294-1.398468-2.9395294-3.1525574
			c0-1.694603,1.1145706-3.1048813,2.9508972-3.1048813c0.8066254,0,1.5528793,0.3315735,2.0384293,1.0192184v-0.8888626
			H125.9673004z M122.7556915,75.736496c0.9947128,0,1.7890854-0.6753922,1.7890854-1.8603897
			c0-1.1618118-0.746254-1.9557419-1.8249588-1.9557419c-1.1023178,0-1.7304688,0.8652344-1.7304688,1.8962555
			C120.9893494,74.8835068,121.6647415,75.736496,122.7556915,75.736496z"/>
		<path class="st0" d="M129.395874,70.8302841h1.7899628v1.1137009h-1.7899628v3.1407394
			c0,0.3674469,0.1548462,0.6517715,0.5809021,0.6517715c0.3560638,0,0.5931549-0.2488937,0.5931549-0.6163406
			c0-0.1303482-0.0244904-0.3669968-0.0831146-0.4973526h1.1968079c0.1067352,0.2248383,0.1303558,0.5686569,0.1303558,0.6753922
			c0,0.8770447-0.6045227,1.6591721-1.896698,1.6591721c-0.9947052,0-1.9789276-0.4264984-1.9789276-2.0738602V71.943985h-0.9360962
			v-1.1137009h1.006958l0.2607117-1.6001129h1.125946V70.8302841z"/>
		<path class="st0" d="M133.5540771,68.1278458c0.5450439,0,0.9719696,0.4028702,0.9719696,0.9242859
			c0,0.5218582-0.4269257,0.9129181-0.9719696,0.9129181c-0.5450287,0-0.947464-0.3910599-0.947464-0.9129181
			C132.6066132,68.5307159,133.0090485,68.1278458,133.5540771,68.1278458z M132.8191986,76.8270111v-5.996727h1.4583893v5.996727
			H132.8191986z"/>
		<path class="st0" d="M138.7358704,70.6999283c1.7540894,0,3.2588501,1.4102783,3.2588501,3.1285019
			c0,1.7304688-1.5047607,3.1289368-3.2588501,3.1289368c-1.7304688,0-3.2474823-1.3866577-3.2474823-3.1289368
			C135.4883881,72.0983963,137.0054016,70.6999283,138.7358704,70.6999283z M138.7358704,75.7128754
			c1.0192108,0,1.7899628-0.8293686,1.7899628-1.8844452c0-1.0428314-0.770752-1.8844452-1.7899628-1.8844452
			c-1.007843,0-1.77771,0.8298035-1.77771,1.8844452C136.9581604,74.8835068,137.7280273,75.7128754,138.7358704,75.7128754z"/>
		<path class="st0" d="M143.2387695,70.8302841h1.4583893v1.0074005c0.3788147-0.7825623,1.0900726-1.1377563,1.9430695-1.1377563
			c1.4933777,0,2.2160187,1.07827,2.2160187,2.8087387v3.3183441h-1.4575195v-3.3065338
			c0-1.0428314-0.4383087-1.5883026-1.1609344-1.5883026c-0.8538666,0-1.5406342,0.6399536-1.5406342,1.8962555v2.9985809
			h-1.4583893V70.8302841z"/>
		<path class="st0" d="M89.996582,82.4877853v8.5688095h-1.4575195v-0.9006653
			c-0.4387436,0.6517715-1.1849976,1.0310211-2.0620422,1.0310211c-1.7659073,0-2.9277191-1.3984604-2.9277191-3.1525574
			c0-1.694603,1.1023254-3.1048737,2.9395294-3.1048737c0.805748,0,1.5524368,0.3315735,2.0502319,1.0192108v-3.4609451H89.996582z
			 M86.7849731,89.9660873c0.9955902,0,1.77771-0.6753922,1.77771-1.8603897c0-1.1618118-0.7348785-1.9557495-1.8249588-1.9557495
			c-1.1023178,0-1.7186584,0.8652344-1.7186584,1.8962555C85.0190659,89.1130981,85.694458,89.9660873,86.7849731,89.9660873z"/>
		<path class="st0" d="M97.4245758,90.037384c-0.805748,0.9006729-1.7895279,1.1495667-2.7138138,1.1495667
			c-2.1569672,0-3.4491348-1.3984604-3.4491348-3.1053085c0-1.7536621,1.3866501-3.1521225,3.2829056-3.1521225
			c1.6237411,0,3.1525574,1.0192108,3.1525574,3.3301544h-4.9775085c0,0.9479065,0.7703094,1.694603,2.0620422,1.694603
			c0.7466888,0,1.3035431-0.272522,1.8131485-0.7348862L97.4245758,90.037384z M92.7904434,87.2758942h3.4132614
			c-0.2248383-0.9242935-1.0428314-1.1849976-1.6591721-1.1849976
			C93.9045792,86.0908966,93.0988312,86.3516006,92.7904434,87.2758942z"/>
		<path class="st0" d="M99.4787445,89.1485291c0.1539764,0.59272,0.7344437,0.8652344,1.2799149,0.8652344
			c0.4264984,0,0.9006729-0.1539764,0.9006729-0.6281433c0-0.3083878-0.2843323-0.4859848-0.6517715-0.6399612l-0.8770447-0.3320084
			c-1.1972504-0.450119-1.5051956-1.125946-1.5051956-1.6709824c0-1.1141357,0.9479065-1.8131485,2.1923981-1.8131485
			c0.7584991,0,1.7068481,0.2607117,2.097908,1.338974l-1.1736221,0.4269333
			c-0.1539764-0.4859848-0.5922775-0.6163406-0.9124756-0.6163406c-0.3792572,0-0.7821274,0.213028-0.7821274,0.6281509
			c0,0.3315659,0.2961426,0.4977951,0.6281509,0.6158981l0.888855,0.3201981
			c1.2799225,0.4264908,1.5288162,1.1968079,1.5288162,1.7186584c0,1.1849976-1.1023254,1.8249588-2.3463745,1.8249588
			c-0.9719696,0-2.0742874-0.4028702-2.4181061-1.5524368L99.4787445,89.1485291z"/>
		<path class="st0" d="M110.8366089,91.1869507c-0.8766098,0-1.6237411-0.3792496-2.0506744-1.0310211v0.9006653h-1.4575119
			v-8.5688095h1.4575119v3.4609451c0.4864197-0.6876373,1.2326736-1.0192108,2.039299-1.0192108
			c1.8363266,0,2.9508972,1.4102707,2.9508972,3.1048737C113.7761307,89.7884903,112.6143188,91.1869507,110.8366089,91.1869507z
			 M110.5758972,86.1499481c-1.0787048,0-1.8135834,0.7939377-1.8135834,1.9557495
			c0,1.1849976,0.7829971,1.8603897,1.7777176,1.8603897c1.0909424,0,1.7663345-0.8529892,1.7663345-1.9198837
			C112.306366,87.0151825,111.6782227,86.1499481,110.5758972,86.1499481z"/>
		<path class="st0" d="M115.7909317,82.3574371c0.5450363,0,0.9719696,0.4028702,0.9719696,0.9242859
			c0,0.5218506-0.4269333,0.9129181-0.9719696,0.9129181s-0.9474716-0.3910675-0.9474716-0.9129181
			C114.8434601,82.7603073,115.2458954,82.3574371,115.7909317,82.3574371z M115.0560532,91.0565948v-5.9967194h1.4583893v5.9967194
			H115.0560532z"/>
		<path class="st0" d="M121.6603622,91.1869507c-0.8774796,0-1.6237335-0.3792496-2.0506668-1.0310211v0.9006653h-1.4575195
			v-8.5688095h1.4575195v3.4609451c0.4855499-0.6876373,1.2326736-1.0192108,2.0384216-1.0192108
			c1.837204,0,2.9509048,1.4102707,2.9509048,3.1048737C124.5990219,89.7884903,123.4380798,91.1869507,121.6603622,91.1869507z
			 M121.3996582,86.1499481c-1.0787048,0-1.8135834,0.7939377-1.8135834,1.9557495
			c0,1.1849976,0.7821198,1.8603897,1.77771,1.8603897c1.0900803,0,1.7654724-0.8529892,1.7654724-1.9198837
			C123.1292572,87.0151825,122.5011063,86.1499481,121.3996582,86.1499481z"/>
		<path class="st0" d="M125.8999329,91.0565948v-8.5688095h1.4583893v8.5688095H125.8999329z"/>
		<path class="st0" d="M129.7405701,82.3574371c0.5450287,0,0.9719696,0.4028702,0.9719696,0.9242859
			c0,0.5218506-0.4269409,0.9129181-0.9719696,0.9129181c-0.5450439,0-0.9474792-0.3910675-0.9474792-0.9129181
			C128.7930908,82.7603073,129.1955261,82.3574371,129.7405701,82.3574371z M129.0056915,91.0565948v-5.9967194h1.4583893v5.9967194
			H129.0056915z"/>
		<path class="st0" d="M134.9206085,84.9295197c1.7540894,0,3.2588501,1.4102707,3.2588501,3.1284943
			c0,1.7304764-1.5047607,3.1289368-3.2588501,3.1289368c-1.7304688,0-3.2474823-1.3866501-3.2474823-3.1289368
			C131.6731262,86.32798,133.1901398,84.9295197,134.9206085,84.9295197z M134.9206085,89.9424667
			c1.0192108,0,1.7899628-0.8293686,1.7899628-1.8844528c0-1.0428314-0.770752-1.8844452-1.7899628-1.8844452
			c-1.006958,0-1.77771,0.8298035-1.77771,1.8844452C133.1428986,89.1130981,133.9136505,89.9424667,134.9206085,89.9424667z"/>
		<path class="st0" d="M141.0682526,85.0598755h1.7899628v1.1136932h-1.7899628v3.1407471
			c0,0.3674393,0.1548462,0.6517715,0.5809021,0.6517715c0.3560638,0,0.5931549-0.2489014,0.5931549-0.6163406
			c0-0.1303558-0.0244904-0.3670044-0.0831146-0.4973602h1.1968079c0.1067352,0.2248459,0.1303558,0.5686646,0.1303558,0.6753922
			c0,0.8770523-0.6045227,1.6591721-1.896698,1.6591721c-0.9947205,0-1.9789276-0.4264908-1.9789276-2.0738525v-2.9395294
			h-0.9360962v-1.1136932h1.006958l0.2607117-1.6001205h1.125946V85.0598755z"/>
		<path class="st0" d="M144.5125732,82.4877853h1.4583893v3.5794907c0.3788147-0.7825623,1.0778198-1.1377563,1.9316864-1.1377563
			c1.4933777,0,2.2273865,1.0782623,2.2273865,2.8087387v3.3183365h-1.4575043v-3.3065262
			c0-1.0428314-0.4505615-1.5883102-1.1731873-1.5883102c-0.7112732,0-1.5283813,0.5336685-1.5283813,1.8962555v2.9985809
			h-1.4583893V82.4877853z"/>
		<path class="st0" d="M157.4692383,90.037384c-0.8066254,0.9006729-1.7899628,1.1495667-2.7146912,1.1495667
			c-2.1565247,0-3.4487-1.3984604-3.4487-3.1053085c0-1.7536621,1.3866577-3.1521225,3.2833557-3.1521225
			c1.6237335,0,3.1521149,1.0192108,3.1521149,3.3301544h-4.977951c0,0.9479065,0.770752,1.694603,2.062912,1.694603
			c0.7462616,0,1.3035431-0.272522,1.8127136-0.7348862L157.4692383,90.037384z M154.162262,82.3338089l1.1023254,1.9080734
			h-1.1495667l-1.5292511-1.9080734H154.162262z M152.8350983,87.2758942h3.4128265
			c-0.2248383-0.9242935-1.0428314-1.1849976-1.6587219-1.1849976
			C153.9488068,86.0908966,153.1430511,86.3516006,152.8350983,87.2758942z"/>
		<path class="st0" d="M163.5495148,93.7704086v-3.6026688c-0.4978027,0.6872025-1.2449341,1.0192108-2.0506744,1.0192108
			c-1.8363342,0-2.9386597-1.4102707-2.9386597-3.1053085c0-1.7536621,1.1609497-3.1521225,2.9272919-3.1521225
			c0.8766022,0,1.6237335,0.3792496,2.0620422,1.0310211v-0.9006653h1.4575043v8.7105331H163.5495148z M161.7481689,89.9660873
			c1.0900726,0,1.837204-0.7939377,1.837204-1.9553146c0-1.1849976-0.7943726-1.8608246-1.7899628-1.8608246
			c-1.0900726,0-1.7654572,0.8534241-1.7654572,1.9198761C160.029953,89.1012878,160.6458435,89.9660873,161.7481689,89.9660873z"/>
		<path class="st0" d="M172.1940002,91.0565948h-1.4583893v-1.0074005
			c-0.3788147,0.7821274-1.0778351,1.1377563-1.9317017,1.1377563c-1.4933777,0-2.2282562-1.0786972-2.2282562-2.8087311v-3.3183441
			h1.4583893v3.3065262c0,0.9715347,0.3788147,1.5406342,1.1609344,1.5406342c0.6753845,0,1.5406342-0.5572891,1.5406342-2.2518921
			v-2.5952682h1.4583893V91.0565948z"/>
		<path class="st0" d="M179.6180573,90.037384c-0.8066254,0.9006729-1.7899628,1.1495667-2.7146912,1.1495667
			c-2.1565247,0-3.4487-1.3984604-3.4487-3.1053085c0-1.7536621,1.3866577-3.1521225,3.2833557-3.1521225
			c1.6237335,0,3.1521149,1.0192108,3.1521149,3.3301544h-4.977951c0,0.9479065,0.770752,1.694603,2.062912,1.694603
			c0.7462616,0,1.3035431-0.272522,1.8127136-0.7348862L179.6180573,90.037384z M174.9839172,87.2758942h3.4128265
			c-0.2248383-0.9242935-1.0428314-1.1849976-1.6587219-1.1849976
			C176.0976105,86.0908966,175.2918701,86.3516006,174.9839172,87.2758942z"/>
		<path class="st0" d="M181.6713409,89.1485291c0.1539764,0.59272,0.7348938,0.8652344,1.2799225,0.8652344
			c0.4269409,0,0.9011078-0.1539764,0.9011078-0.6281433c0-0.3083878-0.2843323-0.4859848-0.6517639-0.6399612l-0.8774872-0.3320084
			c-1.1968079-0.450119-1.5047607-1.125946-1.5047607-1.6709824c0-1.1141357,0.948349-1.8131485,2.1923981-1.8131485
			c0.7584991,0,1.7068481,0.2607117,2.0979156,1.338974l-1.1731873,0.4269333
			c-0.1539764-0.4859848-0.5931549-0.6163406-0.9124756-0.6163406c-0.3796997,0-0.782135,0.213028-0.782135,0.6281509
			c0,0.3315659,0.2957001,0.4977951,0.6281586,0.6158981l0.888855,0.3201981
			c1.2799225,0.4264908,1.5283813,1.1968079,1.5283813,1.7186584c0,1.1849976-1.1023254,1.8249588-2.3463745,1.8249588
			c-0.9719696,0-2.074295-0.4028702-2.4181213-1.5524368L181.6713409,89.1485291z"/>
		<path class="st0" d="M83.9408035,108v-8.7105408h1.4575119v0.9006729
			c0.4264984-0.6517715,1.1731873-1.0310211,2.0502396-1.0310211c1.77771,0,2.9395218,1.3984604,2.9395218,3.1521149
			c0,1.6950378-1.1141281,3.1053162-2.9513397,3.1053162c-0.8057404,0-1.5524368-0.3320084-2.0384216-1.0192108V108H83.9408035z
			 M87.1524124,100.3795395c-0.9955902,0-1.7895279,0.675827-1.7895279,1.8608246c0,1.161377,0.7466965,1.955307,1.8249588,1.955307
			c1.1023254,0,1.7304688-0.8647995,1.7304688-1.8962555C88.9183121,101.2329636,88.2429199,100.3795395,87.1524124,100.3795395z"/>
		<path class="st0" d="M97.199295,105.2861862h-1.4575119v-1.0074005c-0.3792572,0.7821274-1.0787048,1.1377563-1.931694,1.1377563
			c-1.4933853,0-2.2282639-1.0787048-2.2282639-2.8087387v-3.3183441h1.4575119v3.3065338
			c0,0.9715347,0.3792572,1.5406265,1.1618195,1.5406265c0.6753922,0,1.5406265-0.5572815,1.5406265-2.2518845v-2.5952759h1.4575119
			V105.2861862z"/>
		<path class="st0" d="M102.3395309,105.4165421c-0.8770447,0-1.6237335-0.3792572-2.0502319-1.0310211v0.9006653h-1.4579544
			v-8.5688095h1.4579544v3.4609451c0.4859848-0.687645,1.2326813-1.0192108,2.0384216-1.0192108
			c1.837204,0,2.9509048,1.4102707,2.9509048,3.1048737C105.2786255,104.018074,104.1172485,105.4165421,102.3395309,105.4165421z
			 M102.0788269,100.3795395c-1.0782623,0-1.8131485,0.7939301-1.8131485,1.9557495
			c0,1.1849899,0.7821274,1.8603821,1.7777176,1.8603821c1.0900726,0,1.7658997-0.8529816,1.7658997-1.9198761
			C103.8092957,101.2447739,103.1811447,100.3795395,102.0788269,100.3795395z"/>
		<path class="st0" d="M106.5808487,105.2861862v-8.5688095h1.4575195v8.5688095H106.5808487z"/>
		<path class="st0" d="M110.4201736,96.5870209c0.5450363,0,0.9719696,0.4028702,0.9719696,0.9242935
			c0,0.5218506-0.4269333,0.9129105-0.9719696,0.9129105s-0.9474716-0.3910599-0.9474716-0.9129105
			C109.472702,96.9898911,109.8751373,96.5870209,110.4201736,96.5870209z M109.6852875,105.2861862v-5.996727h1.4583969v5.996727
			H109.6852875z"/>
		<path class="st0" d="M117.3796768,108v-3.6026688c-0.4977951,0.6872025-1.2449265,1.0192108-2.0506668,1.0192108
			c-1.8363342,0-2.938652-1.4102783-2.938652-3.1053162c0-1.7536545,1.1609344-3.1521149,2.9272766-3.1521149
			c0.8766098,0,1.6237411,0.3792496,2.0620422,1.0310211v-0.9006729h1.4575195V108H117.3796768z M115.5783463,104.1956711
			c1.0900726,0,1.837204-0.7939301,1.837204-1.955307c0-1.1849976-0.7943726-1.8608246-1.7899628-1.8608246
			c-1.0900803,0-1.7654648,0.8534241-1.7654648,1.9198761C113.8601227,103.3308716,114.4760208,104.1956711,115.5783463,104.1956711
			z"/>
		<path class="st0" d="M126.0250397,105.2861862h-1.4583893v-1.0074005
			c-0.3788147,0.7821274-1.0778275,1.1377563-1.931694,1.1377563c-1.4933853,0-2.2282639-1.0787048-2.2282639-2.8087387v-3.3183441
			h1.4583893v3.3065338c0,0.9715347,0.3788147,1.5406265,1.1609421,1.5406265c0.6753922,0,1.5406265-0.5572815,1.5406265-2.2518845
			v-2.5952759h1.4583893V105.2861862z"/>
		<path class="st0" d="M133.4490967,104.2669754c-0.8066254,0.9006653-1.7899628,1.1495667-2.7146912,1.1495667
			c-2.1565247,0-3.4486923-1.398468-3.4486923-3.1053162c0-1.7536545,1.3866501-3.1521149,3.2833481-3.1521149
			c1.6237335,0,3.1521149,1.0192108,3.1521149,3.3301468h-4.977951c0,0.9479141,0.770752,1.694603,2.0629272,1.694603
			c0.7462463,0,1.3035278-0.2725143,1.8126984-0.7348785L133.4490967,104.2669754z M128.8149719,101.5054779h3.4128265
			c-0.2248383-0.9242859-1.0428314-1.1849899-1.6587372-1.1849899
			C129.9286652,100.320488,129.1229095,100.581192,128.8149719,101.5054779z"/>
		<path class="st0" d="M135.5023956,103.3781204c0.1539764,0.5927124,0.7348785,0.8652344,1.2799072,0.8652344
			c0.4269409,0,0.9011078-0.1539764,0.9011078-0.6281509c0-0.3083878-0.284317-0.4859848-0.6517639-0.6399612l-0.8774872-0.3320084
			c-1.1968079-0.4501114-1.5047607-1.125946-1.5047607-1.6709824c0-1.1141281,0.948349-1.8131409,2.1923981-1.8131409
			c0.7585144,0,1.7068481,0.260704,2.0979156,1.3389664l-1.1731873,0.4269333
			c-0.1539764-0.4859848-0.5931549-0.6163406-0.9124756-0.6163406c-0.3796844,0-0.7821198,0.2130356-0.7821198,0.6281509
			c0,0.3315735,0.2957001,0.4977951,0.6272736,0.6159058l0.8897247,0.3201981
			c1.2799225,0.4264908,1.5283813,1.1968079,1.5283813,1.7186584c0,1.1849976-1.1023254,1.8249588-2.3463745,1.8249588
			c-0.9719696,0-2.074295-0.4028778-2.4181061-1.5524368L135.5023956,103.3781204z"/>
		<path class="st0" d="M149.421402,96.7173767v8.5688095h-1.4583893v-0.9006653
			c-0.4383087,0.6517639-1.1845551,1.0310211-2.0620422,1.0310211c-1.7654724,0-2.9272766-1.398468-2.9272766-3.1525574
			c0-1.694603,1.1023254-3.1048737,2.9395294-3.1048737c0.8057404,0,1.552002,0.3315659,2.0497894,1.0192108v-3.4609451H149.421402z
			 M146.2097931,104.1956711c0.9947205,0,1.77771-0.6753922,1.77771-1.8603821c0-1.1618195-0.7348785-1.9557495-1.8258209-1.9557495
			c-1.1023254,0-1.7182312,0.8652344-1.7182312,1.8962555C144.4434509,103.3426895,145.1188507,104.1956711,146.2097931,104.1956711
			z"/>
		<path class="st0" d="M156.619751,105.2861862h-1.4583893v-1.0074005
			c-0.3788147,0.7821274-1.0778351,1.1377563-1.9317017,1.1377563c-1.4933777,0-2.2282562-1.0787048-2.2282562-2.8087387v-3.3183441
			h1.4583893v3.3065338c0,0.9715347,0.3788147,1.5406265,1.1609344,1.5406265c0.6753998,0,1.5406342-0.5572815,1.5406342-2.2518845
			v-2.5952759h1.4583893V105.2861862z"/>
		<path class="st0" d="M167.5047455,106.3767014c0.3438263,0,0.9360962-0.1780396,1.2440491-0.4033127l0.4978027,1.0668869
			c-0.4855499,0.3674469-1.1609497,0.5804749-1.848587,0.5804749c-1.6709747,0-2.5248413-1.1018906-2.6665649-2.2396393
			c-2.0856628-0.2847672-3.7811432-2.074295-3.7811432-4.2430725c0-2.3581848,1.9798126-4.2784958,4.3498077-4.2784958
			c2.3708649,0,4.3497925,1.920311,4.3497925,4.2784958c0,2.0502319-1.5528717,3.768898-3.4723206,4.1835785
			C166.2720642,105.9974442,166.7226257,106.3767014,167.5047455,106.3767014z M165.3001099,104.0417023
			c1.5292511,0,2.7969208-1.2326813,2.7969208-2.9036636s-1.2676697-2.903656-2.7969208-2.903656
			c-1.5283813,0-2.796936,1.2326736-2.796936,2.903656S163.7717285,104.0417023,165.3001099,104.0417023z"/>
		<path class="st0" d="M176.5901642,105.2861862h-1.4583893v-1.0074005
			c-0.3788147,0.7821274-1.0778351,1.1377563-1.9316864,1.1377563c-1.4933929,0-2.2282715-1.0787048-2.2282715-2.8087387v-3.3183441
			h1.4583893v3.3065338c0,0.9715347,0.3788147,1.5406265,1.1609344,1.5406265c0.6753998,0,1.5406342-0.5572815,1.5406342-2.2518845
			v-2.5952759h1.4583893V105.2861862z"/>
		<path class="st0" d="M184.0115967,104.2669754c-0.8066254,0.9006653-1.7899628,1.1495667-2.7146912,1.1495667
			c-2.1565247,0-3.4487-1.398468-3.4487-3.1053162c0-1.7536545,1.3866577-3.1521149,3.2833557-3.1521149
			c1.6237335,0,3.1521149,1.0192108,3.1521149,3.3301468h-4.977951c0,0.9479141,0.770752,1.694603,2.0629272,1.694603
			c0.7462463,0,1.3035278-0.2725143,1.8126984-0.7348785L184.0115967,104.2669754z M179.3774719,101.5054779h3.4128265
			c-0.2248383-0.9242859-1.0428467-1.1849899-1.6587372-1.1849899
			C180.4911652,100.320488,179.6854095,100.581192,179.3774719,101.5054779z M183.0273743,96.5634003l-1.5406189,1.9080658
			h-1.1373291l1.1014557-1.9080658H183.0273743z"/>
		<path class="st0" d="M188.9834137,105.4165421c-0.8774719,0-1.6237335-0.3792572-2.0506592-1.0310211v0.9006653h-1.4575195
			v-8.5688095h1.4575195v3.4609451c0.4855499-0.687645,1.232666-1.0192108,2.0384216-1.0192108
			c1.837204,0,2.9508972,1.4102707,2.9508972,3.1048737C191.9220734,104.018074,190.7611389,105.4165421,188.9834137,105.4165421z
			 M188.7227173,100.3795395c-1.0787048,0-1.8135834,0.7939301-1.8135834,1.9557495
			c0,1.1849899,0.7821198,1.8603821,1.77771,1.8603821c1.0900726,0,1.7654724-0.8529816,1.7654724-1.9198761
			C190.4523163,101.2447739,189.8241577,100.3795395,188.7227173,100.3795395z"/>
		<path class="st0" d="M198.9856873,104.2669754c-0.8066254,0.9006653-1.7899628,1.1495667-2.7146912,1.1495667
			c-2.1565247,0-3.4486847-1.398468-3.4486847-3.1053162c0-1.7536545,1.3866425-3.1521149,3.2833405-3.1521149
			c1.6237335,0,3.1521149,1.0192108,3.1521149,3.3301468h-4.977951c0,0.9479141,0.770752,1.694603,2.0629272,1.694603
			c0.7462463,0,1.3035431-0.2725143,1.8126984-0.7348785L198.9856873,104.2669754z M194.3515625,101.5054779h3.4128265
			c-0.2248383-0.9242859-1.0428314-1.1849899-1.6587372-1.1849899
			C195.4652557,100.320488,194.6595154,100.581192,194.3515625,101.5054779z"/>
		<path class="st0" d="M203.4168549,99.159111c0.5809021,0,1.3866425,0.1303482,2.3113708,0.8057404l-0.6762543,1.0428314
			c-0.6159058-0.5096054-1.3385468-0.5450363-1.5642548-0.5450363c-1.1609344,0-1.9789276,0.7466965-1.9789276,1.8249588
			c0,1.0668945,0.8179932,1.8253937,1.9789276,1.8253937c0.225708,0,0.948349-0.0476761,1.5642548-0.5454712l0.6762543,1.031456
			c-0.9247284,0.6872025-1.7304688,0.8175583-2.3113708,0.8175583c-2.0856628,0-3.3778381-1.3512192-3.3778381-3.093071
			C200.0390167,100.5453262,201.2953186,99.159111,203.4168549,99.159111z"/>
	</g>
</g>
<g>
	<path class="st0" d="M113.87883,21.1690788v27.7837753h-8.0699234v-4.0617943
		c-2.0038223,2.8701363-4.6578598,4.657383-8.7196579,4.657383c-8.4489288,0-13.5399475-6.4987717-13.5399475-14.6228371
		c0-7.7992001,4.7120056-14.3521175,13.3775177-14.3521175c3.7369232,0,6.9865494,1.8413925,8.8820877,4.3866615v-3.7910709
		H113.87883z M98.7682114,42.9955254c3.9535065,0,7.2572708-2.5457458,7.2572708-7.5826187
		c0-5.1451626-3.0871887-8.2865009-7.4738464-8.2865009c-4.4412842,0-6.9324112,3.5744934-6.9324112,7.8533459
		C91.6192245,39.4205551,94.3269272,42.9955254,98.7682114,42.9955254z"/>
	<path class="st0" d="M135.1336517,49.5484428c-4.0613251,0-6.7158356-1.7872467-8.7196579-4.657383v4.0617943h-8.0694427V9.7918339
		h8.0694427v15.1683159c1.8955307-2.545269,5.1451645-4.3866615,8.8825607-4.3866615
		c8.6650391,0,13.3770447,6.5529175,13.3770447,14.3521175C148.6735992,43.0496712,143.5830536,49.5484428,135.1336517,49.5484428z
		 M133.6712646,27.1264057c-4.3861847,0-7.4738541,3.1413383-7.4738541,8.2865009
		c0,5.0368729,3.3042526,7.5826187,7.2572708,7.5826187c4.4417725,0,7.1489868-3.5749702,7.1489868-8.0157738
		C140.6036682,30.7008991,138.1130219,27.1264057,133.6712646,27.1264057z"/>
	<path class="st0" d="M151.1318207,61.6260147V21.1690788h8.0699158v4.0617924
		c2.00383-2.8701363,4.6573792-4.657383,8.7196503-4.657383c8.4484558,0,13.5399475,6.4987736,13.5399475,14.622839
		c0,7.7991982-4.7120056,14.3521156-13.3779907,14.3521156c-3.7364502,0-6.9860687-1.8413887-8.8816071-4.3866577v16.4642296
		H151.1318207z M166.2424316,27.1264057c-3.9539795,0-7.2572784,2.5457497-7.2572784,7.5826206
		c0,5.1451645,3.0867157,8.286499,7.4738617,8.286499c4.4407959,0,6.9324036-3.5749702,6.9324036-7.853344
		C173.3914185,30.7008991,170.6832428,27.1264057,166.2424316,27.1264057z"/>
	<path class="st0" d="M205.6441193,61.6260147V45.1617851c-1.8955383,2.545269-5.1451721,4.3866577-8.8816223,4.3866577
		c-8.6659851,0-13.3770294-6.5529175-13.3770294-14.3521156c0-8.1240654,5.0905304-14.622839,13.5389862-14.622839
		c4.0622711,0,6.7158356,1.7872467,8.7196655,4.657383v-4.0617924h8.0699005v40.4569359H205.6441193z M198.3868408,42.9955254
		c4.3871307,0,7.4748077-3.1413345,7.4748077-8.286499c0-5.036871-3.304245-7.5826206-7.2582397-7.5826206
		c-4.4407959,0-7.1489868,3.5744934-7.1489868,8.0157757C191.454422,39.4205551,193.9460297,42.9955254,198.3868408,42.9955254z"/>
</g>
<g>
	<polygon class="st1" points="39.1619644,0 34.2662048,0 34.2662048,25.7024136 39.1619644,26.9263039 	"/>
	<polygon class="st1" points="68.5329742,14.6893148 48.9521332,14.6893148 48.9521332,34.267643 53.8473282,35.4914589 
		53.8473282,48.9536743 68.5329742,48.9536743 	"/>
	<polyline class="st0" points="29.3755398,29.3734798 29.371294,63.6368103 48.9521332,68.5320053 48.9521332,34.267643 
		29.3755398,29.3734798 	"/>
	<polygon class="st0" points="14.6856489,59.9653664 19.580843,61.1891823 19.580843,15.9084969 14.6856489,14.6846828 	"/>
	<polyline class="st1" points="29.371294,48.9536743 24.4760361,48.9536743 24.4760361,17.1323109 19.580843,15.9084969 
		19.580843,9.7919989 29.3755398,9.7919989 29.371294,48.9536743 29.3755398,48.9536743 	"/>
	<polygon class="st0" points="0,56.2939873 9.7947016,58.7426491 9.7947016,26.9237289 0,24.475069 	"/>
</g>
</svg>
