<svg xmlns="http://www.w3.org/2000/svg" width="282" height="92" viewBox="0 0 282 92" fill="none"><path d="M0 92V0.725098H37.0391C37.0391 0.725098 52.2516 4.69346 58.8657 8.00063C65.4798 11.3078 72.5349 50.772 66.8026 66.8663L80.0309 92H0Z" fill="#FDF7F0"></path><path d="M14.7143 81.0892C14.7143 81.0892 17.53 81.3239 19.1725 79.7987C19.9937 79.0948 20.3456 77.9216 20.3456 76.5137V56.452C17.2953 55.2788 14.597 53.2844 12.3679 50.4687C8.2617 45.424 6.26726 38.3848 7.32314 31.8149C9.31758 18.675 19.759 10.1107 33.9548 10.1107C44.6309 10.1107 51.5527 14.6862 55.4243 18.4404C59.9998 22.8986 61.9942 27.5914 62.2289 28.8819C62.2289 28.9992 62.3462 29.1165 62.3462 29.3512C65.9831 42.8429 62.4635 55.3962 52.374 64.5471L56.9495 70.4131C57.3014 70.7651 57.5361 71.2344 57.888 71.7036C59.9998 74.402 62.3462 77.4523 64.8099 79.0948C67.039 80.5026 70.6759 81.0892 74.4301 81.2065L66.8043 66.8935C75.486 60.089 81 49.7648 81 37.9155C81 17.2672 64.3406 0.725098 43.9269 0.725098H0.166626V81.0892H14.597C14.7143 81.0892 14.7143 81.0892 14.7143 81.0892Z" fill="black"></path><path d="M55.6589 73.4632C55.307 72.9939 54.955 72.642 54.7204 72.29L49.3237 65.3681C48.8544 64.7815 48.9717 63.843 49.5583 63.3737C59.7651 54.692 63.2847 43.1947 59.6478 30.1722C59.6478 29.9375 59.5305 29.8202 59.5305 29.7029C58.7093 26.4179 51.5527 13.0435 33.9548 13.0435C23.8652 13.0435 12.2506 18.0882 10.2561 32.2839C9.4349 38.0326 11.1947 44.3679 14.7143 48.826C16.0048 50.3512 17.8819 52.2283 20.463 53.4015V42.1388C20.463 41.5522 20.3456 35.0996 24.4518 30.8761C26.7982 28.4124 30.2005 27.1218 34.3067 27.1218C48.5024 27.1218 49.089 41.6695 49.089 41.7868C49.089 42.0215 49.2063 48.1221 44.2789 52.6976C40.29 56.5691 34.1894 58.2116 26.329 57.7423C25.2731 57.625 24.3345 57.5077 23.396 57.3904V76.6308C23.396 78.8599 22.692 80.737 21.2842 82.0275C18.8205 84.2566 15.3009 84.1393 14.7143 84.022H0.166626V91.9997H80.1788L75.9553 84.1393C71.1452 84.1393 66.335 83.67 63.1674 81.5583C60.4691 79.5638 57.888 76.3962 55.6589 73.4632Z" fill="black"></path><path d="M23.2788 42.0218V54.3404C24.2174 54.5751 25.2733 54.8097 26.3292 54.8097C33.4857 55.279 38.7651 53.7538 42.1673 50.4689C46.1562 46.7146 46.0389 41.6699 46.0389 41.6699C46.0389 41.2006 45.5696 29.8206 34.1896 29.8206C30.9046 29.8206 28.2063 30.7591 26.4465 32.7536C23.1615 36.2731 23.2788 41.9045 23.2788 42.0218C23.2788 41.9045 23.2788 41.9045 23.2788 42.0218Z" fill="black"></path><path d="M123 25.5C123 27.5 122.2 29.1 120.7 30L122.1 33.7H119.2L118.2 30.9C117.9 30.9 117.7 30.9 117.6 30.9H114.8V33.7H112V20H117.5C118.4 20 119.3 20.2 120.2 20.7C122.1 21.6 123 23.2 123 25.5ZM117.5 28.3C117.9 28.3 118.4 28.2 118.9 28C119.8 27.5 120.3 26.7 120.3 25.6C120.3 24.4 119.8 23.7 118.9 23.2C118.4 22.9 118 22.8 117.5 22.8H114.8V28.3H117.5Z" fill="black"></path><path d="M158.3 33.7999H155.1L154.3 31.8999H148.6L147.8 33.7999H144.6L151.5 20.0999L158.3 33.7999ZM153.2 28.9999L151.5 25.6999L149.8 28.9999H153.2Z" fill="black"></path><path d="M186.2 20.0999C187.1 20.0999 188 20.2999 188.9 20.7999C190.7 21.6999 191.6 23.2999 191.6 25.5999C191.6 27.8999 190.7 29.4999 188.9 30.3999C188 30.8999 187.1 31.0999 186.2 31.0999H183.4V33.7999H180.7V20.0999H186.2ZM186.2 28.2999C186.6 28.2999 187.1 28.1999 187.6 27.9999C188.5 27.5999 189 26.7999 189 25.5999C189 24.4999 188.5 23.6999 187.6 23.1999C187.1 22.9999 186.7 22.8999 186.2 22.8999H183.4V28.3999H186.2V28.2999Z" fill="black"></path><path d="M224.9 33.7999H221.7L220.9 31.8999H215.2L214.4 33.7999H211.2L218.1 20.0999L224.9 33.7999ZM219.7 28.9999L218 25.6999L216.3 28.9999H219.7Z" fill="black"></path><path d="M250 20.0999H247.3V33.7999H250V20.0999Z" fill="black"></path><path d="M275.1 20.0999V30.9999H281.5V33.7999H272.4V20.0999H275.1Z" fill="black"></path><path d="M114.8 47.8999C114.7 47.8999 114.6 47.8999 114.5 47.8999H113.1V49.7999H112.1V43.5999H114.6C116.2 43.5999 117.1 44.3999 117.1 45.6999C117.1 46.6999 116.6 47.3999 115.8 47.6999L117.2 49.7999H115.9L114.8 47.8999ZM114.5 46.8999C115.4 46.8999 116 46.4999 116 45.6999C116 44.8999 115.5 44.4999 114.5 44.4999H113.1V46.8999H114.5Z" fill="black"></path><path d="M119.7 44.4999V46.1999H122.7V47.0999H119.7V48.7999H123.2V49.6999H118.7V43.4999H123.1V44.3999H119.7V44.4999ZM121.2 42.8999H120.3L121.2 41.5999L122.2 41.9999L121.2 42.8999Z" fill="black"></path><path d="M128.9 44.2L128.5 45.1C127.8 44.7 127.2 44.5 126.7 44.5C126.1 44.5 125.7 44.7 125.7 45.1C125.7 46.4 129 45.7 129 47.9C129 49 128 49.7 126.7 49.7C125.7 49.7 124.8 49.3 124.2 48.7L124.6 47.8C125.2 48.4 126 48.7 126.7 48.7C127.4 48.7 127.9 48.4 127.9 48C127.9 46.6 124.6 47.4 124.6 45.2C124.6 44.1 125.5 43.5 126.8 43.5C127.6 43.5 128.3 43.8 128.9 44.2Z" fill="black"></path><path d="M131.5 44.4999V46.1999H134.5V47.0999H131.5V48.7999H135V49.6999H130.5V43.5999H134.9V44.4999H131.5Z" fill="black"></path><path d="M137.4 48.3L136.8 49.7H135.7L138.4 43.5H139.5L142.2 49.7H141.1L140.5 48.3H137.4ZM139 44.7L137.8 47.4H140.1L139 44.7Z" fill="black"></path><path d="M148.4 47.1999C148.4 48.7999 147.4 49.7999 145.7 49.7999C144 49.7999 143 48.7999 143 47.1999V43.5999H144V47.1999C144 48.1999 144.6 48.8999 145.7 48.8999C146.7 48.8999 147.3 48.2999 147.3 47.1999V43.5999H148.3V47.1999H148.4Z" fill="black"></path><path d="M155.2 43.5999C157 43.5999 158.4 44.8999 158.4 46.6999C158.4 48.4999 157.1 49.7999 155.2 49.7999H152.7V43.5999H155.2ZM153.8 48.7999H155.3C156.5 48.7999 157.4 47.8999 157.4 46.6999C157.4 45.3999 156.5 44.4999 155.2 44.4999H153.7V48.7999H153.8Z" fill="black"></path><path d="M160.9 44.4999V46.1999H163.9V47.0999H160.9V48.7999H164.3V49.6999H159.8V43.5999H164.2V44.4999H160.9Z" fill="black"></path><path d="M170.1 44.2L169.7 45.1C169 44.7 168.4 44.5 167.9 44.5C167.3 44.5 166.9 44.7 166.9 45.1C166.9 46.4 170.2 45.7 170.2 47.9C170.2 49 169.2 49.7 167.9 49.7C166.9 49.7 166 49.3 165.4 48.7L165.8 47.8C166.4 48.4 167.2 48.7 167.9 48.7C168.6 48.7 169.1 48.4 169.1 48C169.1 46.6 165.8 47.4 165.8 45.2C165.8 44.1 166.7 43.5 168 43.5C168.7 43.5 169.5 43.8 170.1 44.2Z" fill="black"></path><path d="M175.1 48.3L174.5 49.7H173.4L176.1 43.5H177.2L179.9 49.7H178.8L178.2 48.3H175.1ZM176.6 44.7L175.4 47.4H177.7L176.6 44.7Z" fill="black"></path><path d="M183.8 47.8999C183.7 47.8999 183.6 47.8999 183.5 47.8999H182V49.7999H181V43.5999H183.5C185.1 43.5999 186 44.3999 186 45.6999C186 46.6999 185.5 47.3999 184.7 47.6999L186.1 49.7999H184.9L183.8 47.8999ZM183.5 46.8999C184.4 46.8999 185 46.4999 185 45.6999C185 44.8999 184.5 44.4999 183.5 44.4999H182V46.8999H183.5Z" fill="black"></path><path d="M189.9 44.4999V49.6999H188.8V44.4999H186.9V43.5999H191.8V44.4999H189.9Z" fill="black"></path><path d="M197.2 44.2L196.8 45.1C196.1 44.7 195.5 44.5 195 44.5C194.4 44.5 194 44.7 194 45.1C194 46.4 197.3 45.7 197.3 47.9C197.3 49 196.3 49.7 195 49.7C194 49.7 193.1 49.3 192.5 48.7L192.9 47.8C193.5 48.4 194.3 48.7 195 48.7C195.7 48.7 196.2 48.4 196.2 48C196.2 46.6 192.9 47.4 192.9 45.2C192.9 44.1 193.8 43.5 195.1 43.5C195.8 43.5 196.6 43.8 197.2 44.2Z" fill="black"></path><path d="M203.9 43.5999C205.7 43.5999 207.1 44.8999 207.1 46.6999C207.1 48.4999 205.8 49.7999 203.9 49.7999H201.4V43.5999H203.9ZM202.4 48.7999H203.9C205.1 48.7999 206 47.8999 206 46.6999C206 45.3999 205.1 44.4999 203.8 44.4999H202.4V48.7999Z" fill="black"></path><path d="M209.5 44.4999V46.1999H212.5V47.0999H209.5V48.7999H212.9V49.6999H208.4V43.5999H212.8V44.4999H209.5Z" fill="black"></path><path d="M220.8 48.7999V49.6999H217.1V43.5999H218.1V48.7999H220.8Z" fill="black"></path><path d="M223 48.3L222.4 49.7H221.3L224 43.5H225.1L227.8 49.7H226.7L226.1 48.3H223ZM224.5 44.7L223.3 47.4H225.6L224.5 44.7Z" fill="black"></path><path d="M233.9 43.5999C235.4 43.5999 236.3 44.3999 236.3 45.6999C236.3 47.0999 235.4 47.8999 233.9 47.8999H232.5V49.7999H231.5V43.5999H233.9ZM232.5 46.8999H233.9C234.8 46.8999 235.4 46.4999 235.4 45.6999C235.4 44.8999 234.9 44.4999 233.9 44.4999H232.5V46.8999Z" fill="black"></path><path d="M238.1 48.3L237.5 49.7H236.4L239.1 43.5H240.2L242.9 49.7H241.8L241.2 48.3H238.1ZM239.7 44.7L238.5 47.4H240.8L239.7 44.7Z" fill="black"></path><path d="M246.8 47.8999C246.7 47.8999 246.6 47.8999 246.5 47.8999H245V49.7999H244V43.5999H246.5C248.1 43.5999 249 44.3999 249 45.6999C249 46.6999 248.5 47.3999 247.7 47.6999L249.1 49.7999H247.9L246.8 47.8999ZM246.5 46.8999C247.4 46.8999 248 46.4999 248 45.6999C248 44.8999 247.5 44.4999 246.5 44.4999H245V46.8999H246.5Z" fill="black"></path><path d="M256.7 46.7C256.7 48.5 255.3 49.8 253.4 49.8C251.6 49.8 250.1 48.4 250.1 46.7C250.1 44.9 251.5 43.6 253.4 43.6C255.3 43.5 256.7 44.9 256.7 46.7ZM251.2 46.7C251.2 47.9 252.2 48.9 253.4 48.9C254.6 48.9 255.6 47.9 255.6 46.7C255.6 45.5 254.6 44.5 253.4 44.5C252.2 44.5 251.2 45.4 251.2 46.7Z" fill="black"></path><path d="M261.8 48.7999V49.6999H258.1V43.5999H259.1V48.7999H261.8Z" fill="black"></path><path d="M264.1 44.4999V46.1999H267.1V47.0999H264.1V48.7999H267.6V49.6999H263.1V43.5999H267.5V44.4999H264.1Z" fill="black"></path><path d="M272.7 44.4999V46.1999H275.7V47.0999H272.7V48.7999H276.2V49.6999H271.7V43.5999H276.1V44.4999H272.7Z" fill="black"></path><path d="M280 44.4999V49.6999H279V44.4999H277V43.5999H282V44.4999H280Z" fill="black"></path><path d="M114.5 54.0999C116.3 54.0999 117.7 55.3999 117.7 57.1999C117.7 58.9999 116.4 60.2999 114.5 60.2999H112V54.0999H114.5ZM113.1 59.2999H114.6C115.8 59.2999 116.7 58.3999 116.7 57.1999C116.7 55.8999 115.8 54.9999 114.5 54.9999H113.1V59.2999Z" fill="black"></path><path d="M119.9 55.0999V56.6999H122.9V57.6999H119.9V59.2999H123.4V60.2999H118.9V54.0999H123.3V55.0999H119.9Z" fill="black"></path><path d="M128.9 54.7L128.5 55.6C127.8 55.2 127.2 55 126.7 55C126.1 55 125.7 55.2 125.7 55.6C125.7 56.9 129 56.2 129 58.4C129 59.5 128 60.2 126.7 60.2C125.7 60.2 124.8 59.8 124.2 59.2L124.6 58.3C125.2 58.9 126 59.2 126.7 59.2C127.4 59.2 127.9 58.9 127.9 58.5C127.9 57.1 124.6 57.9 124.6 55.7C124.6 54.6 125.5 54 126.8 54C127.5 54.1 128.3 54.3 128.9 54.7Z" fill="black"></path><path d="M133.4 58.8999L132.8 60.2999H131.7L134.4 54.0999H135.5L138.2 60.2999H137.1L136.5 58.8999H133.4ZM135 55.1999L133.8 57.8999H136.1L135 55.1999Z" fill="black"></path><path d="M141.9 58.3999C141.8 58.3999 141.7 58.3999 141.6 58.3999H140.1V60.2999H139.1V54.0999H141.6C143.2 54.0999 144.1 54.8999 144.1 56.1999C144.1 57.1999 143.6 57.8999 142.8 58.1999L144.2 60.2999H143L141.9 58.3999ZM141.6 57.4999C142.5 57.4999 143.1 57.0999 143.1 56.2999C143.1 55.4999 142.6 55.0999 141.6 55.0999H140.1V57.4999H141.6Z" fill="black"></path><path d="M147.8 55.0999V60.2999H146.7V55.0999H144.8V54.0999H149.7V55.0999H147.8Z" fill="black"></path><path d="M154.8 54.7L154.4 55.6C153.7 55.2 153.1 55 152.6 55C152 55 151.6 55.2 151.6 55.6C151.6 56.9 154.9 56.2 154.9 58.4C154.9 59.5 153.9 60.2 152.6 60.2C151.6 60.2 150.7 59.8 150.1 59.2L150.5 58.3C151.1 58.9 151.9 59.2 152.6 59.2C153.3 59.2 153.8 58.9 153.8 58.5C153.8 57.1 150.5 57.9 150.5 55.7C150.5 54.6 151.4 54 152.7 54C153.5 54.1 154.3 54.3 154.8 54.7Z" fill="black"></path><path d="M159.5 55.0999V56.6999H162.5V57.6999H159.5V59.2999H163V60.2999H158.5V54.0999H162.9V55.0999H159.5Z" fill="black"></path><path d="M166.6 55.0999V60.2999H165.5V55.0999H163.6V54.0999H168.5V55.0999H166.6Z" fill="black"></path><path d="M172.8 54.0999H171.8V60.2999H172.8V54.0999Z" fill="black"></path><path d="M178.8 60.2999L175.5 55.8999V60.2999H174.5V54.0999H175.5L178.8 58.4999V54.0999H179.8V60.2999H178.8Z" fill="black"></path><path d="M182.5 54.0999H181.5V60.2999H182.5V54.0999Z" fill="black"></path><path d="M186.5 55.0999V60.2999H185.4V55.0999H183.5V54.0999H188.4V55.0999H186.5Z" fill="black"></path><path d="M190.4 54.0999H189.4V60.2999H190.4V54.0999Z" fill="black"></path><path d="M192.9 58.8999L192.3 60.2999H191.2L193.9 54.0999H195L197.7 60.2999H196.6L196 58.8999H192.9ZM194.5 55.1999L193.3 57.8999H195.6L194.5 55.1999Z" fill="black"></path><path d="M200.3 55.0999V60.2999H199.2V55.0999H197.3V54.0999H202.2V55.0999H200.3Z" fill="black"></path><path d="M204.1 54.0999H203.1V60.2999H204.1V54.0999Z" fill="black"></path><path d="M207.5 60.2999L205.1 54.0999H206.2L208.1 59.0999L210 54.0999H211.1L208.6 60.2999H207.5Z" fill="black"></path><path d="M213 55.0999V56.6999H216V57.6999H213V59.2999H216.5V60.2999H212V54.0999H216.4V55.0999H213Z" fill="black"></path><path d="M222 54.7L221.6 55.6C220.9 55.2 220.3 55 219.8 55C219.2 55 218.8 55.2 218.8 55.6C218.8 56.9 222.1 56.2 222.1 58.4C222.1 59.5 221.1 60.2 219.8 60.2C218.8 60.2 217.9 59.8 217.3 59.2L217.7 58.3C218.3 58.9 219.1 59.2 219.8 59.2C220.5 59.2 221 58.9 221 58.5C221 57.1 217.7 57.9 217.7 55.7C217.7 54.6 218.6 54 219.9 54C220.6 54.1 221.4 54.3 222 54.7Z" fill="black"></path><path d="M229.3 59.2999V60.2999H225.6V54.0999H226.7V59.2999H229.3Z" fill="black"></path><path d="M231.4 54.0999H230.4V60.2999H231.4V54.0999Z" fill="black"></path><path d="M235.4 55.0999V60.2999H234.3V55.0999H232.4V54.0999H237.3V55.0999H235.4Z" fill="black"></path><path d="M240.5 55.0999V60.2999H239.5V55.0999H237.5V54.0999H242.5V55.0999H240.5Z" fill="black"></path><path d="M244.4 55.0999V56.7999H247.4V57.7H244.4V59.3999H247.9V60.2999H243.4V54.0999H247.8V55H244.4V55.0999ZM245.9 53.5H245L245.9 52.2L246.9 52.5999L245.9 53.5Z" fill="black"></path><path d="M252 58.3999C251.9 58.3999 251.8 58.3999 251.7 58.3999H250.2V60.2999H249.2V54.0999H251.7C253.3 54.0999 254.2 54.8999 254.2 56.1999C254.2 57.1999 253.7 57.8999 252.9 58.1999L254.3 60.2999H253.1L252 58.3999ZM251.7 57.4999C252.6 57.4999 253.2 57.0999 253.2 56.2999C253.2 55.4999 252.7 55.0999 251.7 55.0999H250.2V57.4999H251.7Z" fill="black"></path><path d="M256.5 58.8999L255.9 60.2999H254.8L257.5 54.0999H258.6L261.3 60.2999H260.2L259.6 58.8999H256.5ZM258 55.1999L256.8 57.8999H259.1L258 55.1999Z" fill="black"></path><path d="M263.2 54.0999H262.2V60.2999H263.2V54.0999Z" fill="black"></path><path d="M267.7 58.3999C267.6 58.3999 267.5 58.3999 267.4 58.3999H265.9V60.2999H264.9V54.0999H267.4C269 54.0999 269.9 54.8999 269.9 56.1999C269.9 57.1999 269.4 57.8999 268.6 58.1999L270 60.2999H268.8L267.7 58.3999ZM267.4 57.4999C268.3 57.4999 268.9 57.0999 268.9 56.2999C268.9 55.4999 268.4 55.0999 267.4 55.0999H265.9V57.4999H267.4Z" fill="black"></path><path d="M272.3 55.0999V56.6999H275.3V57.6999H272.3V59.2999H275.8V60.2999H271.3V54.0999H275.7V55.0999H272.3Z" fill="black"></path><path d="M281.3 54.7L280.9 55.6C280.2 55.2 279.6 55 279.1 55C278.5 55 278.1 55.2 278.1 55.6C278.1 56.9 281.4 56.2 281.4 58.4C281.4 59.5 280.4 60.2 279.1 60.2C278.1 60.2 277.2 59.8 276.6 59.2L277 58.3C277.6 58.9 278.4 59.2 279.1 59.2C279.8 59.2 280.3 58.9 280.3 58.5C280.3 57.1 277 57.9 277 55.7C277 54.6 277.9 54 279.2 54C279.9 54.1 280.7 54.3 281.3 54.7Z" fill="black"></path></svg>