<?xml version="1.0" encoding="utf-8"?>
<!-- Generator: Adobe Illustrator 22.1.0, SVG Export Plug-In . SVG Version: 6.00 Build 0)  -->
<svg version="1.1" id="Layer_1" xmlns="http://www.w3.org/2000/svg" xmlns:xlink="http://www.w3.org/1999/xlink" x="0px" y="0px"
	 viewBox="0 0 278 67" style="enable-background:new 0 0 278 67;" xml:space="preserve">
<style type="text/css">
	.st0{fill:#45555F;}
	.st1{fill:#84939D;}
	.st2{fill:#8BC53F;}
	.st3{fill:#00A4D9;}
	.st4{fill:#009B55;}
	.st5{fill:#FFC121;}
	.st6{fill:#94A14D;}
	.st7{fill:#008152;}
	.st8{fill:#00814D;}
</style>
<g>
	<g>
		<path class="st0" d="M70.4309769,17.8289165h3.3262329v11.5688457c0.6967773-0.9292393,1.5673599-1.6508007,2.6122131-2.1673012
			c1.0448608-0.5148067,2.1475983-0.7734432,3.307457-0.7734432c1.4192581,0,2.6700974,0.3089771,3.7540588,0.9298553
			c1.0824203,0.6179543,1.9911804,1.4237251,2.727211,2.4159298c0.7351151,0.9945145,1.2891769,2.1235809,1.6634293,3.3858147
			c0.3744049,1.2642326,0.5616074,2.5272331,0.5616074,3.7916222c0,1.3679962-0.1819687,2.7030449-0.5420532,4.0049973
			c-0.3614807,1.3019524-0.9095383,2.4625778-1.6438751,3.4818764c-0.7360382,1.0192986-1.665123,1.8387718-2.7858734,2.4581108
			c-1.1222916,0.6194954-2.4445648,0.9277-3.9660492,0.9277c-1.1861801,0-2.2889175-0.2570953-3.3082199-0.7743645
			c-1.0193024-0.5141907-1.8507843-1.2748566-2.4956741-2.2821503c0,0.3097496,0,0.6448975,0,1.0072937
			c0,0.3353004-0.0383377,0.6555176-0.116539,0.9666481c-0.0766678,0.3082085-0.2247696,0.5683823-0.4442978,0.7743683
			c-0.2201538,0.2058296-0.5486755,0.3082047-0.9869766,0.3082047c-0.4636917,0-0.8568802-0.1744232-1.1794052-0.5217323
			c-0.322525-0.3473129-0.4832458-0.7412682-0.4832458-1.1801796V17.8289165z M73.91362,40.018589
			c0.178894,0.915535,0.4952545,1.7348557,0.9470978,2.4565697c0.4503021,0.7231026,1.0440903,1.3034935,1.7793503,1.7424011
			c0.735878,0.4375267,1.6701965,0.6555176,2.8052673,0.6555176c1.031311,0,1.8958893-0.2420082,2.5926666-0.7337227
			c0.6967773-0.4900208,1.2568436-1.107975,1.6831284-1.8581696c0.4253616-0.7471199,0.7351074-1.5861435,0.9283142-2.5136909
			c0.1939774-0.9275436,0.2901993-1.8190651,0.2901993-2.6716385c0-0.874897-0.0962219-1.7724228-0.2901993-2.6879578
			c-0.1932068-0.9156952-0.5164948-1.7462502-0.9666443-2.4956779c-0.4518433-0.7472706-1.0388565-1.3530617-1.7605667-1.8176823
			c-0.7231064-0.4646187-1.6124725-0.6967754-2.670105-0.6967754c-1.1095123,0-2.0250473,0.2381611-2.7466125,0.7155571
			c-0.7232513,0.4773979-1.2974854,1.0899639-1.7229996,1.8378506c-0.4247513,0.7480412-0.7223358,1.5869122-0.888443,2.5152264
			c-0.1684265,0.9277-0.2526321,1.8432388-0.2526321,2.746769C73.6414413,38.1678047,73.7316513,39.1030502,73.91362,40.018589z"/>
		<path class="st0" d="M91.4035187,28.0822639c0-0.4894066,0.1676559-0.8833618,0.5035706-1.1801777
			c0.3345337-0.2946587,0.7352676-0.4450684,1.1991119-0.4450684c0.4389114,0,0.8057709,0.1691914,1.1035156,0.5029545
			c0.2960434,0.3359165,0.4441452,0.7095528,0.4441452,1.1222916v19.3842468h-3.2503433V28.0822639z"/>
		<path class="st0" d="M98.6936493,17.8289165h3.3269958v11.5688457c0.6967773-0.9292393,1.566597-1.6508007,2.6114502-2.1673012
			c1.0440826-0.5148067,2.1475983-0.7734432,3.3082199-0.7734432c1.4184875,0,2.6700974,0.3089771,3.7532883,0.9298553
			c1.0839615,0.6179543,1.9927216,1.4237251,2.7279892,2.4159298c0.7351074,0.9945145,1.2897873,2.1235809,1.6626511,3.3858147
			c0.3744049,1.2642326,0.5623779,2.5272331,0.5623779,3.7916222c0,1.3679962-0.1811981,2.7030449-0.5428238,4.0049973
			c-0.3600845,1.3019524-0.9087677,2.4625778-1.6432571,3.4818764c-0.7351074,1.0192986-1.6641922,1.8387718-2.7864838,2.4581108
			c-1.1215286,0.6194954-2.4445648,0.9277-3.9652786,0.9277c-1.1869507,0-2.2896957-0.2570953-3.3089981-0.7743645
			c-1.0185242-0.5141907-1.8507767-1.2748566-2.4956741-2.2821503c0,0.3097496,0,0.6448975,0,1.0072937
			c0,0.3353004-0.0375595,0.6555176-0.1149979,0.9666481c-0.0789795,0.3082085-0.2263031,0.5683823-0.4450684,0.7743683
			c-0.2193756,0.2058296-0.5494461,0.3082047-0.9861984,0.3082047c-0.4646149,0-0.8576584-0.1744232-1.1801834-0.5217323
			c-0.3239059-0.3473129-0.4840088-0.7412682-0.4840088-1.1801796V17.8289165z M102.1755219,40.018589
			c0.1810455,0.915535,0.4967957,1.7348557,0.9478683,2.4565697c0.4510727,0.7231026,1.0448532,1.3034935,1.7793503,1.7424011
			c0.735878,0.4375267,1.6701965,0.6555176,2.8060379,0.6555176c1.0305328,0,1.8958893-0.2420082,2.5918884-0.7337227
			c0.6967773-0.4900208,1.2576141-1.107975,1.683136-1.8581696c0.4245911-0.7471199,0.7351074-1.5861435,0.9275436-2.5136909
			c0.1939774-0.9275436,0.2909622-1.8190651,0.2909622-2.6716385c0-0.874897-0.0969849-1.7724228-0.2909622-2.6879578
			c-0.1924362-0.9156952-0.5149612-1.7462502-0.9666519-2.4956779c-0.4518433-0.7472706-1.0380783-1.3530617-1.7605667-1.8176823
			c-0.7223282-0.4646187-1.6123123-0.6967754-2.6693268-0.6967754c-1.1095123,0-2.0250549,0.2381611-2.7473831,0.7155571
			c-0.7209473,0.4773979-1.2959518,1.0899639-1.7214661,1.8378506c-0.4255142,0.7480412-0.7217178,1.5869122-0.8892136,2.5152264
			c-0.1691895,0.9277-0.2526321,1.8432388-0.2526321,2.746769C101.9041061,38.1678047,101.9943237,39.1030502,102.1755219,40.018589
			z"/>
		<path class="st0" d="M119.6474075,18.9504395c0-0.4636974,0.1548767-0.8628883,0.4638519-1.1989594
			c0.3103638-0.3353024,0.6975479-0.5028,1.1613922-0.5028c0.4644699,0,0.8508835,0.1674976,1.1606293,0.5028
			c0.3088226,0.336071,0.4644623,0.7352619,0.4644623,1.1989594v28.5160713l-3.2503357,0.0391045V18.9504395z"/>
		<path class="st0" d="M126.9367676,28.0822639c0-0.4894066,0.1668777-0.8833618,0.5028-1.1801777
			c0.3345261-0.2946587,0.7352524-0.4450684,1.1997299-0.4450684c0.4382935,0,0.8051453,0.1691914,1.1019592,0.5029545
			c0.2969818,0.3359165,0.4450684,0.7095528,0.4450684,1.1222916v19.3842468h-3.2495575V28.0822639z"/>
		<path class="st0" d="M133.7576599,33.1698341c0.4119568-1.2771645,1.0057526-2.4108505,1.7793427-3.4045944
			c0.7742157-0.9914341,1.7280884-1.7927418,2.8631592-2.3994579c1.1350708-0.6057911,2.4250031-0.9087639,3.8698273-0.9087639
			c1.4432678,0,2.7332153,0.3029728,3.8698273,0.9087639c1.1319885,0.6067162,2.0881653,1.4080238,2.8609924,2.3994579
			c0.7726746,0.9937439,1.3666077,2.12743,1.7799683,3.4045944c0.411972,1.2770119,0.6194916,2.5851212,0.6194916,3.9260216
			c0,1.3170395-0.1999817,2.618988-0.5999451,3.9089317c-0.3997955,1.2899437-0.9861908,2.4430275-1.7604065,3.462326
			c-0.7728271,1.0192986-1.7274628,1.8387718-2.8640747,2.4581108c-1.1350708,0.6194954-2.421936,0.9277-3.8683014,0.9277
			c-1.4702148,0-2.7723083-0.3082047-3.9073792-0.9277c-1.1350708-0.619339-2.0964966-1.4388123-2.8827057-2.4581108
			c-0.7869873-1.0192986-1.3793945-2.1723824-1.7793579-3.462326c-0.3998108-1.2899437-0.5990143-2.605442-0.5990143-3.9464951
			C133.1390839,35.7414055,133.3442993,34.446846,133.7576599,33.1698341z M136.9307098,39.7479439
			c0.2058258,0.9141541,0.5283508,1.7605667,0.9666443,2.5332413c0.4382935,0.7742119,1.0117645,1.4057121,1.7213135,1.897274
			c0.7097015,0.488636,1.5688934,0.73526,2.5731049,0.73526c1.0584106,0,1.9545441-0.2390823,2.6881256-0.7157097
			c0.73526-0.4780121,1.3290405-1.0975075,1.781662-1.8581696c0.4509125-0.7606659,0.7802124-1.6056938,0.9861908-2.5332413
			c0.2059784-0.9290848,0.3082123-1.8447762,0.3082123-2.7483063c0-0.8764343-0.1022339-1.7724228-0.3082123-2.6894989
			c-0.2059784-0.9141541-0.541275-1.7402458-1.0057526-2.4761238c-0.466156-0.7344933-1.0599365-1.3402863-1.7816467-1.8176823
			c-0.7215729-0.4766293-1.5995483-0.715559-2.631012-0.715559c-1.0042114,0-1.8618622,0.2449341-2.5715637,0.7351093
			c-0.708786,0.4901752-1.2899475,1.1155186-1.7408752,1.8761845c-0.4510651,0.7615891-0.780365,1.5929146-0.9861908,2.4956741
			c-0.2067566,0.9021454-0.3097382,1.7801208-0.3097382,2.6294594
			C136.6209717,37.9484291,136.7239532,38.8324051,136.9307098,39.7479439z"/>
		<path class="st1" d="M154.4221497,28.1980343c0-0.4119701,0.1473236-0.7991524,0.4464569-1.161396
			c0.2961884-0.3600883,0.6615143-0.5405159,1.1005707-0.5405159c0.4900208,0,0.8524323,0.0969868,1.0853577,0.2901936
			c0.2315369,0.1932068,0.3924103,0.4441452,0.4826202,0.753891c0.0902252,0.3097477,0.1293182,0.651823,0.1157684,1.0253048
			c-0.0120087,0.3744049-0.0180054,0.7300282-0.0180054,1.0644073c0.6690674-1.0313091,1.5394897-1.8182983,2.6114502-2.361124
			c1.0688629-0.5403633,2.2099457-0.8117771,3.4232178-0.8117771c1.4177246,0,2.670105,0.3089771,3.7525177,0.9298553
			c1.0839539,0.6179543,1.9934998,1.4184914,2.7301483,2.3979187c0.7337189,0.9809666,1.2945557,2.1018734,1.6808167,3.3654919
			c0.3879547,1.2650032,0.5803833,2.5293884,0.5803833,3.7922363c0,1.3155022-0.1864319,2.6249962-0.5608368,3.9269447
			c-0.3742523,1.3019524-0.927536,2.4701233-1.6641846,3.5014305c-0.7337341,1.0328484-1.6567993,1.8703308-2.7663269,2.5152283
			c-1.1079712,0.6435089-2.3994598,0.9668007-3.8698273,0.9668007c-1.1590881,0-2.2626038-0.2497063-3.3059082-0.753273
			c-1.0448608-0.5037231-1.9034424-1.23283-2.5738831-2.1859322v10.7553787h-3.2503357V28.1980343z M157.8273621,39.9794846
			c0.2073669,0.8899803,0.5351257,1.6959076,0.9861908,2.417469c0.4510803,0.7231026,1.0388489,1.309494,1.7605743,1.7619514
			c0.7215576,0.4510727,1.6010742,0.6750717,2.6323853,0.6750717c1.0057526,0,1.8763275-0.2300034,2.6098938-0.694622
			c0.7368011-0.4660034,1.3350525-1.0657921,1.7996826-1.7995148c0.4644623-0.7351112,0.8042297-1.5605888,1.0252991-2.4745865
			c0.2195282-0.9170761,0.3292999-1.8132172,0.3292999-2.6911926c0-0.8508797-0.1037598-1.7333183-0.3112793-2.650547
			c-0.2059937-0.9155388-0.5277557-1.7596436-0.9666595-2.5338573c-0.4390717-0.7735958-1.0192871-1.4117165-1.7394714-1.914669
			c-0.7246399-0.5029545-1.5861511-0.7554302-2.5934448-0.7554302c-0.9035187,0-1.8055115,0.2457027-2.7076569,0.735878
			c-0.6960144,0.3864136-1.2508392,0.8448753-1.6626587,1.3733845c-0.4135132,0.5291233-0.7306366,1.1095142-0.9486389,1.7410145
			c-0.2195282,0.6321182-0.3623962,1.2965622-0.4255066,1.9927216c-0.0646667,0.6975479-0.0977631,1.4057159-0.0977631,2.1288147
			C157.5176086,38.1933632,157.6213684,39.0895004,157.8273621,39.9794846z"/>
		<path class="st1" d="M175.3675995,28.1597004c0-0.46385,0.1684113-0.8518028,0.5037231-1.1606255
			c0.3366852-0.3089771,0.7215576-0.4653893,1.1621552-0.4653893c0.386261,0,0.7591248,0.1300869,1.1215363,0.3885689
			c0.3608551,0.2570953,0.5426636,0.605175,0.5426636,1.044239c0,0.3351479-0.0135498,0.6636772-0.0391083,0.9862003
			c-0.0255432,0.3232937-0.0524902,0.6516685-0.0780487,0.9862022c0.1277771-0.3864136,0.3216095-0.7862206,0.5802307-1.1997299
			c0.2586365-0.4111996,0.553299-0.7929935,0.8899841-1.1403046c0.3353119-0.3488483,0.7081757-0.6321163,1.121521-0.8524189
			c0.4135132-0.2179909,0.8374939-0.3269882,1.2779541-0.3269882c0.5141907,0,0.9606323,0.1676521,1.3350372,0.5028
			c0.3728638,0.3337612,0.5592957,0.7600479,0.5592957,1.2757797c0,0.4389095-0.1397858,0.7742119-0.4239807,1.0065212
			c-0.2841797,0.2307701-0.6328735,0.4441452-1.0463867,0.6388912c-0.411972,0.1916676-0.8688812,0.4187431-1.3726196,0.6766071
			c-0.502182,0.2577133-0.9621735,0.6321182-1.3741455,1.1215229c-0.4133606,0.4900227-0.7606659,1.1410732-1.0433197,1.9528484
			c-0.2855682,0.8134727-0.4255219,1.8792648-0.4255219,3.1933784v10.6787071l-3.2909698,0.0391045V28.1597004z"/>
		<path class="st1" d="M188.2143707,40.8694649c0.3096008,0.786377,0.7351074,1.4703751,1.2763977,2.0506096
			c0.5411377,0.5803909,1.1861877,1.0450096,1.934845,1.3921661c0.7472687,0.3488503,1.5590363,0.5217361,2.4370117,0.5217361
			c0.7217255,0,1.4448242-0.0826721,2.1663818-0.2495537c0.7217102-0.1668816,1.4192657-0.3548546,2.0912476-0.5608368
			l0.73526,2.5918922c-0.8795013,0.3608589-1.7094421,0.6510544-2.4972076,0.8690453
			c-0.7862244,0.2209167-1.6581879,0.3292999-2.6099091,0.3292999c-1.5499573,0-2.9181061-0.2901955-4.1027527-0.8705864
			c-1.1863403-0.5786972-2.1936188-1.359066-3.0174103-2.3392639c-0.8253174-0.9801941-1.4508209-2.1228104-1.8763428-3.4247589
			c-0.4268951-1.3034935-0.6388855-2.6761055-0.6388855-4.1209221c0-1.3424416,0.2195282-2.6503944,0.6584473-3.9275627
			c0.4375305-1.2763939,1.0644073-2.4040737,1.8747864-3.3858109c0.813324-0.9786568,1.7935181-1.7648773,2.9421387-2.3580456
			c1.1472321-0.5937824,2.4416351-0.8907509,3.8893738-0.8907509c1.3650818,0,2.5963593,0.2901936,3.692337,0.8696594
			c1.0975037,0.5803909,2.0252075,1.3418255,2.7858582,2.2829189c0.762207,0.9420166,1.3501434,2.0199718,1.7590332,3.230938
			c0.4148865,1.2125092,0.6208801,2.4497986,0.6208801,3.7141876c0,0.7486572-0.1684265,1.2388306-0.502182,1.471756
			c-0.335144,0.2300034-0.852417,0.3473129-1.546875,0.3473129h-12.5370483
			C187.7497559,39.2637711,187.9046326,40.081707,188.2143707,40.8694649z M198.8930817,35.8601036
			c-0.0255585-0.7742119-0.1668701-1.5545845-0.4255066-2.3415718c-0.2584839-0.7862206-0.619339-1.4959297-1.0839691-2.128046
			c-0.4630737-0.6315022-1.0312958-1.1478481-1.7017517-1.547039c-0.6706085-0.4005775-1.4312744-0.6005573-2.2836914-0.6005573
			c-0.9803467,0-1.8056793,0.1924362-2.4747314,0.5810051c-0.6719971,0.3856449-1.2266693,0.8885975-1.665741,1.5079365
			c-0.4390564,0.619339-0.7862244,1.3298168-1.0433197,2.128046c-0.2570953,0.8005371-0.4390564,1.6004562-0.5428162,2.4002266
			H198.8930817z"/>
		<path class="st1" d="M205.3803711,42.2811852c0.4915619,0.363781,0.9486237,0.6975441,1.3739929,1.0057526
			c0.4255219,0.3112831,0.852417,0.5803871,1.2779388,0.8119278c0.4239807,0.2329254,0.8825836,0.4133568,1.3726044,0.5426712
			c0.4901886,0.1293182,1.0704193,0.19244,1.7410278,0.19244c0.4389038,0,0.8959808-0.0631218,1.3741455-0.19244
			c0.4780121-0.1293144,0.9095306-0.3292961,1.2944031-0.5997849c0.3893585-0.2706451,0.7111053-0.5939369,0.9697418-0.9681892
			c0.2569275-0.3728676,0.3877869-0.8179359,0.3877869-1.3321266c0-0.7230988-0.2811127-1.3168831-0.8343964-1.7815018
			c-0.553299-0.4646225-1.2373047-0.8824387-2.0506134-1.2583847c-0.8119354-0.3728676-1.7019043-0.7275658-2.6685638-1.0628662
			c-0.9681854-0.3353043-1.8581696-0.7412682-2.670105-1.2177429c-0.8117676-0.4781685-1.4959259-1.058403-2.0505981-1.7410164
			c-0.5548401-0.6847649-0.8314819-1.5418053-0.8314819-2.5746498c0-0.9283161,0.2135315-1.7400932,0.6374969-2.4370232
			c0.4239807-0.6960049,0.9726562-1.2823982,1.6448059-1.7596416c0.6704559-0.4781685,1.4177246-0.8382568,2.2445831-1.0839596
			c0.8253174-0.244318,1.6492615-0.3676319,2.47612-0.3676319c0.4644623,0,1.082428,0.0646591,1.8566284,0.1939774
			c0.7743683,0.1293163,1.5410461,0.3345318,2.301712,0.6177998c0.7623444,0.2857304,1.4177094,0.6398144,1.9740906,1.0645599
			c0.5546722,0.4253635,0.8297882,0.9358597,0.8297882,1.5288734c0,0.3871822-0.1337891,0.7352638-0.4044342,1.0434704
			c-0.2704773,0.3103619-0.6268768,0.4652348-1.0644073,0.4652348c-0.2840271,0-0.6044006-0.1022224-0.9681854-0.3089771
			c-0.3608551-0.2067528-0.7726746-0.4389095-1.2372894-0.6967754c-0.4644623-0.2586346-0.9801941-0.4901752-1.5470428-0.6969299
			c-0.568222-0.2066002-1.1861725-0.3088226-1.8581696-0.3088226c-0.411972,0-0.8299408,0.0511112-1.2568359,0.1541042
			c-0.427063,0.1028385-0.8057709,0.2712593-1.1410828,0.5028c-0.3352966,0.233078-0.6059418,0.5225048-0.8119202,0.8712006
			c-0.2073669,0.3480797-0.3096008,0.7540436-0.3096008,1.217741c0,0.569149,0.2766571,1.0396194,0.8297882,1.4132576
			c0.5563812,0.3736343,1.2388306,0.7418823,2.0521545,1.1027374c0.8119354,0.3608589,1.7034454,0.7217178,2.670105,1.0824203
			c0.9666443,0.3623962,1.856781,0.8059273,2.6700897,1.3350487c0.8117828,0.5292816,1.4959259,1.1741753,2.0506134,1.9349937
			c0.5532837,0.7606659,0.8328705,1.6822052,0.8328705,2.767704c0,1.0043678-0.2329407,1.8823433-0.6975555,2.6294594
			c-0.4646149,0.7488098-1.0644073,1.3741531-1.8010559,1.8763351c-0.7337189,0.5021858-1.5530396,0.8779755-2.4550323,1.1230621
			c-0.9050598,0.2435493-1.7921295,0.3668633-2.670105,0.3668633c-0.6719818,0-1.3621368-0.0706635-2.0687714-0.2135277
			c-0.7110901-0.1397858-1.4070892-0.3457718-2.0912476-0.6179543c-0.6839905-0.2720299-1.3288879-0.6133347-1.9348297-1.0253029
			c-0.6044159-0.4135094-1.1155243-0.8779755-1.5274963-1.3937073L205.3803711,42.2811852z"/>
		<path class="st1" d="M222.5628204,22.1234932c0-0.4382954,0.1502686-0.8442593,0.4464569-1.2185116
			c0.2977448-0.3728657,0.6901703-0.5608368,1.1788025-0.5608368c0.4660034,0,0.858429,0.1879711,1.1815491,0.5608368
			c0.3217621,0.3742523,0.4841766,0.7802162,0.4841766,1.2185116l-0.0406342,4.6425018
			c0.2586365,0,0.5817719-0.0060043,0.9681854-0.0195522c0.3864136-0.0127773,0.7548065,0.0135479,1.1035004,0.078207
			c0.3473206,0.0654297,0.6435089,0.1999798,0.8899841,0.4058113c0.2435608,0.2067547,0.3668671,0.5412865,0.3668671,1.0059071
			c0,0.4389095-0.1233063,0.7622032-0.3668671,0.9681873c-0.2464752,0.2059841-0.5351257,0.3419228-0.8719635,0.4058113
			c-0.335144,0.0646591-0.6960144,0.0917549-1.082428,0.0774364c-0.3864136-0.0127773-0.7126312-0.0195522-0.9666443-0.0195522
			v17.757618h-3.2518768V29.668251c-0.2826538,0-0.6059418,0.0067749-0.9667969,0.0195522
			c-0.3622437,0.0143185-0.7020111-0.0127773-1.0253143-0.0774364c-0.3231354-0.0638885-0.5997772-0.1998272-0.8313293-0.4058113
			c-0.2315369-0.2059841-0.3488464-0.5292778-0.3488464-0.9681873c0-0.4375248,0.1113129-0.7600498,0.3308411-0.9675732
			c0.2164612-0.2058315,0.4870911-0.3465405,0.8102417-0.424593c0.323288-0.078207,0.6645966-0.1105366,1.0254517-0.0977592
			c0.3607025,0.0135479,0.6840057,0.0195522,0.9666443,0.0195522V22.1234932z"/>
		<path class="st1" d="M229.7987671,33.1698341c0.411972-1.2771645,1.0057526-2.4108505,1.7785797-3.4045944
			c0.7742004-0.9914341,1.7273102-1.7927418,2.862381-2.3994579c1.1366119-0.6057911,2.4250183-0.9087639,3.8698273-0.9087639
			c1.4463501,0,2.7347565,0.3029728,3.8682861,0.9087639c1.1366119,0.6067162,2.0912476,1.4080238,2.8654633,2.3994579
			c0.7728271,0.9937439,1.3650665,2.12743,1.7785797,3.4045944c0.411972,1.2770119,0.619339,2.5851212,0.619339,3.9260216
			c0,1.3170395-0.1998138,2.618988-0.5997772,3.9089317s-0.9862061,2.4430275-1.7590332,3.462326
			c-0.7742157,1.0192986-1.7288513,1.8387718-2.8654633,2.4581108c-1.1350708,0.6194954-2.4250183,0.9277-3.8682861,0.9277
			c-1.4703827,0-2.7723236-0.3082047-3.9089355-0.9277c-1.1350708-0.619339-2.0957184-1.4388123-2.8819427-2.4581108
			c-0.7863617-1.0192986-1.3786011-2.1723824-1.7785797-3.462326c-0.3999481-1.2899437-0.5999298-2.605442-0.5999298-3.9464951
			C229.1792755,35.7414055,229.3852539,34.446846,229.7987671,33.1698341z M232.9708862,39.7479439
			c0.2075348,0.9141541,0.5277405,1.7605667,0.9668121,2.5332413c0.4389038,0.7742119,1.0117493,1.4057121,1.7213135,1.897274
			c0.7110901,0.488636,1.5681305,0.73526,2.5738831,0.73526c1.0568542,0,1.9543762-0.2390823,2.6896515-0.7157097
			c0.7351074-0.4780121,1.3274994-1.0975075,1.779953-1.8581696c0.4510803-0.7606659,0.7788391-1.6056938,0.9862061-2.5332413
			c0.2059784-0.9290848,0.3097534-1.8447762,0.3097534-2.7483063c0-0.8764343-0.103775-1.7724228-0.3097534-2.6894989
			c-0.2073669-0.9141541-0.5411377-1.7402458-1.0057373-2.4761238c-0.4660187-0.7344933-1.0599518-1.3402863-1.7799835-1.8176823
			c-0.7217102-0.4766293-1.5996857-0.715559-2.6309967-0.715559c-1.0057526,0-1.8641663,0.2449341-2.5738831,0.7351093
			c-0.7080078,0.4901752-1.2883911,1.1155186-1.74086,1.8761845c-0.4510651,0.7615891-0.7788239,1.5929146-0.9863586,2.4956741
			c-0.2059784,0.9021454-0.3095856,1.7801208-0.3095856,2.6294594
			C232.6613007,37.9484291,232.7649078,38.8324051,232.9708862,39.7479439z"/>
		<path class="st0" d="M252.4943085,36.6915855c0.3096008-0.9683456,0.7697449-1.8221474,1.3801575-2.5694199
			c0.6073303-0.7441902,1.351532-1.3350487,2.2325897-1.7694969c0.8808899-0.4359837,1.8912659-0.6532059,3.0323486-0.6532059
			c0.464447,0,0.885498,0.0344849,1.2628479,0.1006832c0.3773193,0.0698929,0.7397156,0.1608772,1.0884094,0.2774143
			c0.3473206,0.1150017,0.696167,0.2607918,1.0448608,0.4352188c0.34729,0.1736526,0.7156982,0.3668594,1.1005859,0.5796165
			l-1.1877136,2.0310593c-0.5021973-0.2706451-1.0343933-0.5306664-1.5966187-0.7832947
			c-0.5623779-0.2510948-1.1321411-0.376564-1.7123718-0.376564c-0.7923889,0-1.4703979,0.1690369-2.0312195,0.5074196
			c-0.5606995,0.3382263-1.0206909,0.7742119-1.3786163,1.3064156c-0.3577881,0.5306625-0.6238098,1.1350708-0.7966919,1.8130646
			c-0.1744232,0.6781464-0.2631073,1.3546028-0.2631073,2.031208c0,0.619339,0.0886841,1.2717781,0.2631073,1.9588547
			c0.1728821,0.6855392,0.4389038,1.3110352,0.7966919,1.8703346c0.3579254,0.5637627,0.8028412,1.026844,1.3350372,1.3935509
			c0.5337524,0.3684006,1.1652527,0.5532951,1.901886,0.5532951c0.2900391,0,0.5802612-0.049572,0.8688965-0.1473312
			c0.2901917-0.0962181,0.5713196-0.1984406,0.8419495-0.3035889c0.2706604-0.106842,0.5231323-0.2075233,0.7532959-0.3052826
			c0.2329102-0.0962181,0.4373474-0.1457901,0.6102295-0.1457901c0.3097534,0,0.5759277,0.1126938,0.7984009,0.3337631
			c0.2210693,0.2224579,0.3337708,0.4795532,0.3337708,0.7697487c0,0.425518-0.1593628,0.7697487-0.4781799,1.0297699
			c-0.3202209,0.2617111-0.7019958,0.470623-1.1455383,0.6239548c-0.4464417,0.1548729-0.9050598,0.2615623-1.3801575,0.3202171
			c-0.4735413,0.0555763-0.8659668,0.0857506-1.1741638,0.0857506c-1.1230774,0-2.119751-0.2179947-2.9903259-0.6510544
			c-0.8688965-0.4359856-1.5979919-1.0162201-2.188858-1.7424011c-0.5908508-0.7246399-1.0359192-1.5665894-1.3350525-2.5243111
			c-0.3006439-0.9575653-0.4495239-1.9588547-0.4495239-3.0037079
			C252.0312347,38.6744537,252.1845703,37.6582336,252.4943085,36.6915855z"/>
		<path class="st0" d="M275.036377,33.020195c0.0090637-0.2420082,0.0481873-0.4593849,0.1143799-0.6524391
			c0.0691223-0.1932068,0.1893616-0.3533134,0.3622437-0.4797058c0.1759644-0.1246986,0.4375305-0.1885872,0.7848511-0.1885872
			c0.3292847,0,0.6044006,0.1262379,0.8268433,0.3780975c0.2224731,0.2510948,0.3352966,0.5314369,0.3352966,0.8411827v14.6259766
			h-2.4685669V45.309063c-0.4646301,0.793766-1.0779724,1.3892403-1.8417053,1.784584
			c-0.7637329,0.3968811-1.6012268,0.5937843-2.5107727,0.5937843c-1.1004333,0-2.0747681-0.2315407-2.9151917-0.6944695
			c-0.8417664-0.4646187-1.5454712-1.0734901-2.1046143-1.8281479c-0.5608521-0.7548141-0.9863586-1.6116982-1.2763977-2.5678787
			c-0.2902222-0.9577217-0.4346008-1.9409981-0.4346008-2.9452095c0-0.9877396,0.1473083-1.9559288,0.4495239-2.9030266
			c0.2992859-0.9472504,0.73526-1.7936668,1.3050232-2.5393982c0.5713196-0.7441902,1.2719421-1.3484421,2.1032715-1.8138313
			c0.8313293-0.464468,1.789032-0.6960068,2.8729858-0.6960068c0.852417,0,1.659729,0.1744232,2.4250183,0.5223503
			c0.762207,0.3480797,1.4161987,0.8614998,1.957489,1.5373383C275.0214539,33.5080605,275.0259094,33.2622032,275.036377,33.020195
			z M266.7375793,41.696331c0.1444092,0.7066269,0.3804016,1.3456726,0.7097168,1.9154396
			c0.3291321,0.5713043,0.7681885,1.0388489,1.3199463,1.4070969c0.5532837,0.3684006,1.2237549,0.5503693,2.0175171,0.5503693
			c0.870575,0,1.5861206-0.1819687,2.1469727-0.5503693c0.5606689-0.368248,0.9997559-0.8404083,1.3199463-1.4206467
			c0.3186951-0.5803871,0.538208-1.2343674,0.6524658-1.9590073c0.1173096-0.726181,0.1759644-1.4568253,0.1759644-2.1903915
			c0-0.6599846-0.0631104-1.327507-0.1879883-2.0025787c-0.1277771-0.6795311-0.3517761-1.2823982-0.6690674-1.8146019
			c-0.3186646-0.5308189-0.7442017-0.9668045-1.277771-1.3065681c-0.5308228-0.336689-1.2028198-0.507267-2.0161438-0.507267
			c-0.7923584,0-1.4703674,0.1742706-2.0296631,0.5223541c-0.5606689,0.3488464-1.0162048,0.802845-1.3650513,1.3635292
			c-0.3473206,0.5623779-0.605957,1.1863365-0.7666931,1.8718719c-0.1668701,0.6884613-0.2496948,1.3695374-0.2496948,2.0461426
			C266.5180359,40.2981606,266.5902405,40.9912415,266.7375793,41.696331z"/>
	</g>
	<path class="st0" d="M130.3795319,21.4822922c0,1.0266895-0.8307037,1.858942-1.8560028,1.858942
		c-1.0260773,0-1.856636-0.8322525-1.856636-1.858942c0-1.0239182,0.8305588-1.8575535,1.856636-1.8575535
		C129.5488281,19.6247387,130.3795319,20.458374,130.3795319,21.4822922z"/>
	<path class="st0" d="M251.159256,45.9690437c0,1.0253067-0.8328552,1.8567886-1.8581696,1.8567886
		c-1.0239105,0-1.856781-0.8314819-1.856781-1.8567886c0-1.0268402,0.8328705-1.8581696,1.856781-1.8581696
		C250.3264008,44.1108742,251.159256,44.9422035,251.159256,45.9690437z"/>
	<path class="st0" d="M94.8523026,21.4822922c0,1.0266895-0.8313293,1.858942-1.856636,1.858942
		c-1.0276108,0-1.8583221-0.8322525-1.8583221-1.858942c0-1.0239182,0.8307114-1.8575535,1.8583221-1.8575535
		C94.0209732,19.6247387,94.8523026,20.458374,94.8523026,21.4822922z"/>
	<g>
		<polygon class="st2" points="16.992281,22.0871658 11.9885283,25.6431828 12.8942423,29.9347477 15.3694191,28.1758175 		"/>
		<path class="st2" d="M29.0020809,14.8161058c-1.1629257,0-2.2769146,0.355484-3.2232647,1.0268545l-3.6493301,2.5934315
			l-1.6225452,6.0884705l7.6020527-5.4023075c0.3308601-0.2337132,0.6683044-0.2832775,0.8930874-0.2832775
			c0.5089607,0,0.9854069,0.2443104,1.275629,0.6501274l16.0265198,22.5521526l0.8372536,0.2231598
			c0.2208138,0.0585861,0.4438362,0.0606613,0.6575699,0.0220528c0.1102715-0.2799377,0.1382332-0.5837822,0.0754089-0.8805008
			l-1.2299461-5.8310814L33.556675,17.1592274C32.514122,15.6925497,30.8114338,14.8161058,29.0020809,14.8161058z"/>
		<path class="st2" d="M47.5054474,47.1838608l-5.5258865,1.165947L23.1319866,61.744381
			c-0.3306789,0.2360115-0.6683044,0.2855759-0.8923187,0.2855759c-0.5095482,0-0.9861736-0.2435417-1.2763519-0.6508942
			L4.3085856,37.9437904c-0.2383127-0.333744-0.3308597-0.7470932-0.2617202-1.1590881
			c0.0692749-0.411953,0.2924786-0.7697372,0.6278028-1.0088158L9.318922,32.475502l-0.9055328-4.2916126l-6.0690784,4.313036
			c-1.211723,0.8614693-2.0160956,2.145443-2.2641048,3.6173515c-0.2495878,1.4717293,0.0879014,2.9510345,0.9486048,4.159874
			l16.6554966,23.4352722c1.0427303,1.4672661,2.746006,2.3421745,4.5553608,2.3421745
			c1.1622009,0,2.2769127-0.3547211,3.2218647-1.025322l23.4352722-16.654686
			c1.131443-0.8049126,1.9008636-1.9822235,2.2008286-3.3322258c-0.2043495,0.1696701-0.421196,0.3209801-0.6477814,0.4602547
			C49.6699219,46.3508492,48.6531715,46.9405403,47.5054474,47.1838608z"/>
		<path class="st3" d="M40.2718658,44.597599l-21.7275772,4.5857582c-0.833643,0.1713409-1.6680527-0.3833542-1.8409233-1.1997261
			l-3.809123-18.0488834L9.318922,32.475502l3.4470091,16.3364983c0.5420656,2.5648346,2.8377409,4.4275894,5.4612093,4.4275894
			c0.3841228,0,0.7705479-0.040638,1.1478596-0.1203766l22.6045609-4.7694054l3.3739014-2.3977852L40.2718658,44.597599z"/>
		<path class="st3" d="M10.7664328,19.8525562c-0.0842037-0.4030209-0.0052319-0.8171368,0.2232485-1.1659908
			c0.2284355-0.3510189,0.5749903-0.5908661,0.9772444-0.676466l6.476428-1.3668709l1.1611652-4.3562851l-8.4683056,1.7871189
			c-1.4537334,0.3068209-2.7022581,1.1645021-3.5178614,2.4153271c-0.8148808,1.2508259-1.0945959,2.7400093-0.7877755,4.192976
			l1.5828128,7.501524l3.575139-2.5407066L10.7664328,19.8525562z"/>
		<path class="st3" d="M40.0980034,12.0730305c0.104496-0.0216932,0.2119713-0.0323372,0.3172836-0.0323372
			c0.732933,0,1.3733635,0.5180731,1.5251732,1.23283l4.7040558,22.3016644l2.8281364,3.9795151l1.18507-4.4463997
			L45.8757286,12.443759c-0.5405312-2.5655584-2.8362083-4.4268227-5.4604416-4.4268227
			c-0.3841248,0-0.770504,0.0412674-1.1470947,0.1202383l-15.2518234,3.218708l-1.1608944,4.3561954L40.0980034,12.0730305z"/>
		<path class="st2" d="M47.7990532,42.2867699c0.5815277-0.1051292,1.0878296-0.5348473,1.2450981-1.1241798l0.4285011-1.6078873
			l-2.8281364-3.9795151l1.2299461,5.8310814C47.9372864,41.7029877,47.9093246,42.0068321,47.7990532,42.2867699z"/>
		<path class="st4" d="M47.7990532,42.2867699c0.5815277-0.1051292,1.0878296-0.5348473,1.2450981-1.1241798l0.4285011-1.6078873
			l-2.8281364-3.9795151l1.2299461,5.8310814C47.9372864,41.7029877,47.9093246,42.0068321,47.7990532,42.2867699z"/>
		<polygon class="st2" points="12.8942423,29.9347477 11.9885283,25.6431828 8.4133892,28.1838894 9.318922,32.475502 		"/>
		<polygon class="st4" points="12.8942423,29.9347477 11.9885283,25.6431828 8.4133892,28.1838894 9.318922,32.475502 		"/>
		<path class="st2" d="M46.1056976,46.1525421l-0.7522354-0.2005196l-3.3739014,2.3977852l5.5258865-1.165947
			c1.1477242-0.2433205,2.1644745-0.8330116,2.9444046-1.6842422c-0.8583145,0.5274506-1.8547249,0.8407211-2.9144135,0.8407211
			C47.054348,46.3403397,46.5724907,46.2772446,46.1056976,46.1525421z"/>
		<path class="st4" d="M46.1056976,46.1525421l-0.7522354-0.2005196l-3.3739014,2.3977852l5.5258865-1.165947
			c1.1477242-0.2433205,2.1644745-0.8330116,2.9444046-1.6842422c-0.8583145,0.5274506-1.8547249,0.8407211-2.9144135,0.8407211
			C47.054348,46.3403397,46.5724907,46.2772446,46.1056976,46.1525421z"/>
		<path class="st5" d="M59.7695236,10.1877728c-0.7472763-1.2913265-1.9506989-2.213006-3.3864365-2.5955958L28.6014957,0.1870781
			C28.1338005,0.0623744,27.65271,0,27.1716194,0c-2.5272236,0-4.7455044,1.7033216-5.3956337,4.1403427l-2.1714668,8.1466007
			l4.41185-0.9310608l1.6466732-6.1790333c0.1810799-0.6787219,0.8021183-1.1538138,1.5085773-1.1538138
			c0.1316032,0,0.2646523,0.017364,0.3939552,0.0526328l27.7823563,7.404377
			c0.3968887,0.1051302,0.7306328,0.3630161,0.9403076,0.7238674c0.2090874,0.361618,0.2669525,0.7794323,0.1601067,1.1770859
			l-5.7906227,21.7273045l1.1533623,5.4664879c0.2835464,1.3441849,0.060524,2.7155647-0.6179276,3.9037895
			c-0.0109596,0.0919609-0.0174103,0.1837845-0.0329704,0.2757912c-0.0163231,0.0966072-0.0414467,0.1900558-0.0625534,0.2849922
			c0.8677406-0.7205772,1.528286-1.6938972,1.8335724-2.8393211l7.4050102-27.7823563
			C60.7195282,12.9819469,60.5181503,11.4800453,59.7695236,10.1877728z"/>
		<path class="st5" d="M46.3042297,42.0415573l-26.9427586-7.1812172c-0.3984203-0.1066628-0.7329788-0.3623848-0.9426517-0.7261658
			c-0.2089081-0.3600883-0.265419-0.77808-0.1593418-1.1757355l2.2474632-8.4335766l-5.1375217,3.6509552l-0.9985313,3.7460709
			c-0.3818235,1.4365063-0.1804485,2.9384518,0.5675936,4.2299595c0.7486725,1.2928581,1.9505186,2.2130051,3.387023,2.5963173
			l21.9463615,5.8494339l6.4020576-1.3511734c0.1294823-0.0270157,0.2501717-0.0754089,0.3659935-0.1330032
			c-0.0331955-0.0642204-0.0654411-0.1288948-0.1081085-0.1887436L46.3042297,42.0415573z"/>
		<polygon class="st5" points="22.1294861,18.4363918 22.8554745,15.7120781 18.4433537,16.6432285 16.992281,22.0871658 		"/>
		<path class="st2" d="M47.1414833,42.2647171l-0.8372536-0.2231598l0.6275787,0.8831215
			c0.0426674,0.0598488,0.074913,0.1245232,0.1081085,0.1887436c0.2452126-0.1219521,0.4580421-0.3036613,0.6128273-0.5405312
			c0.0593529-0.0913734,0.1074295-0.1873932,0.1463089-0.2861214
			C47.5853195,42.3253784,47.3622971,42.3233032,47.1414833,42.2647171z"/>
		<path class="st6" d="M47.1414833,42.2647171l-0.8372536-0.2231598l0.6275787,0.8831215
			c0.0426674,0.0598488,0.074913,0.1245232,0.1081085,0.1887436c0.2452126-0.1219521,0.4580421-0.3036613,0.6128273-0.5405312
			c0.0593529-0.0913734,0.1074295-0.1873932,0.1463089-0.2861214
			C47.5853195,42.3253784,47.3622971,42.3233032,47.1414833,42.2647171z"/>
		<polygon class="st2" points="22.1294861,18.4363918 16.992281,22.0871658 15.3694191,28.1758175 20.5069408,24.5248623 		"/>
		<polygon class="st6" points="22.1294861,18.4363918 16.992281,22.0871658 15.3694191,28.1758175 20.5069408,24.5248623 		"/>
		<path class="st2" d="M51.1931572,44.4785805c-0.055294,0.0968742-0.1076088,0.1949234-0.1690369,0.2891846
			c-0.1715202,0.263298-0.3663101,0.5049057-0.5742683,0.7318535c0.2265854-0.1392746,0.4434319-0.2905846,0.6477814-0.4602547
			c0.0211067-0.0949364,0.0462303-0.188385,0.0625534-0.2849922C51.1757469,44.662365,51.1821976,44.5705414,51.1931572,44.4785805z
			"/>
		<path class="st5" d="M51.1931572,44.4785805c-0.055294,0.0968742-0.1076088,0.1949234-0.1690369,0.2891846
			c-0.1715202,0.263298-0.3663101,0.5049057-0.5742683,0.7318535c0.2265854-0.1392746,0.4434319-0.2905846,0.6477814-0.4602547
			c0.0211067-0.0949364,0.0462303-0.188385,0.0625534-0.2849922C51.1757469,44.662365,51.1821976,44.5705414,51.1931572,44.4785805z
			"/>
		<path class="st3" d="M50.2115402,40.5943642c0.806221,1.1359978,1.1463699,2.5047646,0.981617,3.8842163
			c0.6784515-1.1882248,0.901474-2.5596046,0.6179276-3.9037895l-1.1533623-5.4664879l-1.18507,4.4463997L50.2115402,40.5943642z"/>
		<path class="st3" d="M40.2718658,44.597599l5.0815964,1.3544235l1.2114983-0.8609734
			c0.3352776-0.237545,0.5592918-0.5953293,0.6276207-1.0072823c0.057415-0.3396072,0.0000916-0.6747513-0.1526642-0.9703445
			c-0.1158218,0.0575943-0.2365112,0.1059875-0.3659935,0.1330032L40.2718658,44.597599z"/>
		<polygon class="st3" points="22.8554745,15.7120781 24.0163689,11.3558826 19.6045189,12.2869434 18.4433537,16.6432285 		"/>
		<polygon class="st7" points="22.8554745,15.7120781 24.0163689,11.3558826 19.6045189,12.2869434 18.4433537,16.6432285 		"/>
		<path class="st2" d="M50.2115402,40.5943642l-0.7388878-1.0396614L49.0441513,41.16259
			c-0.1572685,0.5893326-0.6635704,1.0190506-1.2450981,1.1241798c-0.0388794,0.0987282-0.086956,0.1947479-0.1463089,0.2861214
			c-0.1547852,0.2368698-0.3676147,0.4185791-0.6128273,0.5405312c0.1527557,0.2955933,0.2100792,0.6307373,0.1526642,0.9703445
			c-0.0683289,0.411953-0.2923431,0.7697372-0.6276207,1.0072823l-1.2114983,0.8609734l0.7522354,0.2005196
			c0.4667931,0.1247025,0.9486504,0.1877975,1.4297409,0.1877975c1.0596886,0,2.0560989-0.3132706,2.9144135-0.8407211
			c0.2079582-0.2269478,0.4027481-0.4685555,0.5742683-0.7318535c0.0614281-0.0942612,0.1137428-0.1923103,0.1690369-0.2891846
			C51.3579102,43.0991287,51.0177612,41.7303619,50.2115402,40.5943642z"/>
		<path class="st3" d="M50.2115402,40.5943642l-0.7388878-1.0396614L49.0441513,41.16259
			c-0.1572685,0.5893326-0.6635704,1.0190506-1.2450981,1.1241798c-0.0388794,0.0987282-0.086956,0.1947479-0.1463089,0.2861214
			c-0.1547852,0.2368698-0.3676147,0.4185791-0.6128273,0.5405312c0.1527557,0.2955933,0.2100792,0.6307373,0.1526642,0.9703445
			c-0.0683289,0.411953-0.2923431,0.7697372-0.6276207,1.0072823l-1.2114983,0.8609734l0.7522354,0.2005196
			c0.4667931,0.1247025,0.9486504,0.1877975,1.4297409,0.1877975c1.0596886,0,2.0560989-0.3132706,2.9144135-0.8407211
			c0.2079582-0.2269478,0.4027481-0.4685555,0.5742683-0.7318535c0.0614281-0.0942612,0.1137428-0.1923103,0.1690369-0.2891846
			C51.3579102,43.0991287,51.0177612,41.7303619,50.2115402,40.5943642z"/>
		<path class="st8" d="M51.8110962,40.5747681l-1.1533813-5.4664917l-1.1850586,4.4464111l-0.4285278,1.6079102
			c-0.1572266,0.5892944-0.6635742,1.019043-1.2450562,1.1241455c-0.0388794,0.0987549-0.0869751,0.1947632-0.1463013,0.2861328
			c-0.1547852,0.2368774-0.3676147,0.4185791-0.612854,0.5405273c-0.1158447,0.0576172-0.2365112,0.1060181-0.3659668,0.1329956
			l-6.4020996,1.3511963l5.081604,1.3544312l0.7522583,0.2005005c0.4667969,0.1246948,0.9486084,0.1878052,1.4297485,0.1878052
			c1.0596924,0,2.0560913-0.3132935,2.9143677-0.8406982c0.2080078-0.2269897,0.402771-0.4685669,0.5742798-0.7318726
			c0.0614624-0.0942383,0.1137695-0.1923218,0.1690674-0.2891846C51.871582,43.2903442,52.0946045,41.9189453,51.8110962,40.5747681
			z"/>
	</g>
</g>
</svg>
