<svg id="Calque_1" data-name="Calque 1" xmlns="http://www.w3.org/2000/svg" viewBox="0 0 2496.42 922.5"><defs><style>.cls-1{fill:#1d1d1b;}</style></defs><path class="cls-1" d="M1962.93,802h169V770.67H2002.46V515.77h-39.53V802Zm305.33,4.09c79.06,0,107.69-36.8,107.69-111.77V515.77h-38.17V687.52c0,49.07-15,85.88-69.52,85.88-47.71,0-68.16-27.26-68.16-85.88V515.77h-39.52V698.43c0,75,35.44,107.68,107.68,107.68ZM989.29,414.9c68.16,0,94.06-32.71,94.06-96.78V120.47H943v32.72h100.87V311.31c0,36.8-8.18,68.15-54.53,68.15-30,0-50.43-17.72-55.88-57.25H893.88c5.45,60,36.8,92.69,95.41,92.69Zm130.86-4.09h42.26l24.53-68.15h122.68l21.81,68.15h42.26v-2.72l-103.6-287.62h-46.34l-103.6,287.62v2.72Zm77.7-103.59,46.34-140.4h4.09l49.07,140.4ZM1420,410.81h39.53V153.19h6.82l75,257.62H1600l75-257.62h6.81V410.81h36.8V120.47h-72.24l-70.88,254.9h-6.82L1495,120.47h-75V410.81Zm650.21,0h39.53V120.47h-39.53V410.81Zm222.18,4.09c53.16,0,107.69-30,107.69-90,0-40.9-20.45-60-72.25-75l-65.43-19.09c-30-9.54-42.25-12.27-42.25-38.16,0-31.36,27.26-39.53,61.34-39.53,35.44,0,68.15,16.35,68.15,49.07h39.53c0-55.89-49.07-84.52-107.68-84.52-50.44,0-100.87,20.45-100.87,77.7,0,42.26,28.62,60,68.15,69.52l61.34,17.72c43.62,15,50.44,21.81,50.44,46.35,0,30-25.9,50.43-68.16,50.43-46.34,0-87.24-23.17-87.24-75H2167c0,64.07,46.34,110.41,125.4,110.41ZM1769,410.81h42.26l24.53-68.15h122.68l21.81,68.15h42.26v-2.72l-103.6-287.62h-46.34L1769,408.09v2.72Zm77.7-103.59L1893,166.82h4.09l49.07,140.4Z"/><path d="M18.5,904V18.5H2477.92V904ZM0,0V922.5H2496.42V0Z"/><path d="M210.73,484.26l-.87-38.91H139.09V139.51l151.27-.14V611c-29.25-1.53-47.76-10.56-59.91-29.21-12.64-19.39-18.72-49.45-19.72-97.48ZM290.36,629.5V783.65H139.09V463.89h52.64l.46,20.77c1.11,52.68,8.37,86.16,23.57,108.57,15.62,23,39.34,34.58,74.6,36.27ZM804.44,138.87V582H655.07c6.22-30,9.37-62.58,9.37-96.87V139l140-.13ZM563.62,582V139.1L645.9,139V485.13c0,34.42-3.28,67-9.76,96.87Zm240.82,18.53V783.65h-281a295.74,295.74,0,0,0,50.23-41.37c36.77-38.42,62.71-86.11,77.11-141.75Zm-495.54,29c35.43-1.81,60.66-14.18,77.11-37.82,16.18-23.25,23.72-57.1,23.72-106.54V139.25l135.35-.13V600.53h86.53c-2.14,7.88-4.55,15.63-7.16,23.07-14.23,40.6-35.81,76.2-64.15,105.81a279.33,279.33,0,0,1-73.83,54.24H308.9V629.49Zm82.29-144.36c0,45.47-6.48,76-20.4,96-13,18.73-32.72,28.23-61.89,29.85V139.35l82.29-.08V485.13ZM120.55,802.19H823V120.31L120.55,121v681.2Z"/></svg>