<svg xmlns="http://www.w3.org/2000/svg" viewBox="0 0 400 160"><path d="M387.3 89.2H400v69.4h-12.7zm-16.7 59.4v-25.5c0-5.8-1.8-10.3-5.4-13.3-3.6-3-8.5-4.5-14.8-4.5-3.1 0-6 .4-8.7 1.1-2.7.7-4.9 1.8-6.9 3.3-1.9 1.4-3.5 3.2-4.6 5.4-1.2 2.1-1.8 4.6-1.8 7.5h12.7c0-2.4.8-4.2 2.4-5.5 1.6-1.2 3.7-1.9 6.3-1.9 2.5 0 4.5.6 6 1.8 1.5 1.2 2.2 3.2 2.2 5.9v3.4l-14.4 1.2c-5.5.5-9.7 2.3-12.7 5.3-2.9 3.1-4.4 6.7-4.4 10.9 0 2.4.4 4.5 1.2 6.5.8 1.9 2 3.6 3.5 5s3.2 2.5 5.2 3.3c2 .8 4.2 1.2 6.5 1.2 4 0 7.3-.8 9.7-2.5 2.5-1.7 4.5-3.9 6-6.8h.4l.1 8.1h20.1v-9.9h-8.6zm-12.5-10.5c0 3.3-.9 6.1-2.8 8.4-1.9 2.3-4.4 3.5-7.7 3.5-2.3 0-4.1-.4-5.5-1.2-1.4-.8-2.1-1.9-2.1-3.5v-4.5c0-2.1 1-3.2 2.9-3.4l15.3-1.3v2zm-55.9-38l11.3-12.4h-14.3l-7.5 12.4zm18.4 36.5v-6.4c0-3.6-.5-6.9-1.6-9.9-1.1-3.1-2.6-5.7-4.7-7.9-2-2.2-4.5-3.9-7.4-5.2-2.9-1.3-6.1-1.9-9.6-1.9s-6.7.6-9.6 1.9c-2.9 1.3-5.3 3.1-7.4 5.5-2 2.4-3.6 5.2-4.7 8.6-1.1 3.3-1.7 7-1.7 11.1s.5 7.8 1.6 11.2c1.1 3.4 2.6 6.2 4.6 8.6 2 2.4 4.5 4.2 7.4 5.6 2.9 1.3 6.2 2 9.9 2 6.3 0 11.5-1.6 15.6-4.8 4-3.2 6.5-7.7 7.3-13.5h-12.7c-.3 2.7-1.4 4.7-3.1 6.2-1.8 1.5-4 2.2-6.8 2.2s-5.2-.9-7.3-2.6c-2-1.7-3.1-4.1-3.1-7.2v-3.4h33.3zm-33.4-11.7c0-2.9 1-5.2 2.9-7 1.9-1.8 4.4-2.7 7.3-2.7 3 0 5.4.9 7.3 2.7 1.9 1.8 2.9 4.1 2.9 7v1.8h-20.4v-1.8zM254 158.5v-42h16.2v-9.9h-29v51.9zm-48.5-42.1v42.1h25.7v-9.9h-13v-32.2h13v-9.8h-13V89.2h-12.7v17.4h-10.4v9.8zm-49 42.1v-30.1c0-3.8 1-6.9 3-9.2 2-2.3 4.7-3.5 8.2-3.5 3.1 0 5.2.8 6.5 2.5 1.3 1.7 1.9 4.1 1.9 7.1v33.2h12.7v-34.1c0-6-1.4-10.7-4.1-14.1-2.8-3.4-7.1-5.1-12.9-5.1-3.7 0-6.8.8-9.3 2.3-2.5 1.5-4.5 3.7-6.1 6.5v-7.5h-12.7v52h12.8zm-23.6-37.1c-1.1-3.3-2.7-6.2-4.7-8.6-2.1-2.4-4.6-4.3-7.7-5.6-3-1.3-6.5-1.9-10.4-1.9-3.9 0-7.3.6-10.3 1.9-3 1.3-5.6 3.1-7.6 5.6-2.1 2.4-3.7 5.3-4.7 8.6-1.1 3.3-1.6 7-1.6 11.1s.5 7.8 1.6 11.1 2.7 6.2 4.7 8.6c2.1 2.4 4.6 4.3 7.6 5.6 3 1.3 6.5 1.9 10.3 1.9 3.9 0 7.3-.6 10.4-1.9 3-1.3 5.6-3.2 7.7-5.6 2.1-2.4 3.7-5.3 4.7-8.6 1.1-3.3 1.6-7 1.6-11.1 0-4-.6-7.7-1.6-11.1zm-11.7 18.7c0 3.2-1.1 5.7-3.2 7.3-2.1 1.7-4.8 2.5-8 2.5s-5.8-.9-8-2.6c-2.1-1.7-3.2-4.1-3.2-7.2V125c0-3.1 1.1-5.5 3.2-7.2 2.1-1.7 4.8-2.5 8-2.5s5.8.8 8 2.5c2.1 1.7 3.2 4.1 3.2 7.3v15zM18.1 158.5v-54.9h.4l14.2 54.9h14.9l14.3-55.1 1.2.2v54.9h12.7V89.2H54.1l-13.2 54.5h-.5L26.9 89.2H5.3v69.3zM322.7 49v-6.4c0-3.6-.5-6.9-1.6-9.9-1.1-3.1-2.6-5.7-4.7-7.9s-4.5-3.9-7.4-5.2c-2.9-1.3-6.1-1.9-9.6-1.9s-6.7.6-9.6 1.9c-2.9 1.3-5.3 3.1-7.4 5.5-2 2.4-3.6 5.2-4.8 8.6-1.1 3.3-1.7 7-1.7 11.1s.5 7.8 1.6 11.2c1.1 3.4 2.6 6.2 4.6 8.6 2 2.4 4.5 4.2 7.4 5.6 2.9 1.3 6.2 2 9.9 2 6.3 0 11.5-1.6 15.6-4.8 4-3.2 6.5-7.7 7.3-13.5h-12.7c-.3 2.7-1.4 4.7-3.1 6.2-1.8 1.5-4 2.2-6.8 2.2s-5.2-.9-7.3-2.6c-2-1.7-3.1-4.1-3.1-7.2V49h33.4zm-33.4-11.8c0-2.9 1-5.2 2.9-7 1.9-1.8 4.4-2.7 7.3-2.7 3 0 5.4.9 7.3 2.7 1.9 1.8 2.9 4.1 2.9 7V39h-20.4v-1.8zm-33.2 33.7V28.8h16.2v-9.9h-29v52zm-64.6-3.8c2.8 3.4 7 5.1 12.5 5.1 3.7 0 6.8-.8 9.3-2.3 2.5-1.5 4.5-3.7 6.1-6.5V71h12.7V19h-12.7v30c0 3.8-1 6.9-3 9.2-2 2.4-4.7 3.5-8.2 3.5-3.1 0-5.2-.9-6.4-2.6-1.2-1.7-1.8-4.1-1.8-7.1V18.9h-12.7V53c0 6 1.4 10.7 4.2 14.1m-39.1-38.4v42.2h25.7V61h-12.9V28.7h12.9v-9.8h-12.9V1.5h-12.8v17.4h-10.3v9.8zM121.1 1.5h12.7v69.4h-12.7zM69.5 67.1c2.8 3.4 7 5.1 12.5 5.1 3.7 0 6.8-.8 9.3-2.3 2.5-1.5 4.5-3.7 6.1-6.5V71h12.7V19H97.4v30c0 3.8-1 6.9-3 9.2-2 2.4-4.7 3.5-8.2 3.5-3.1 0-5.2-.9-6.4-2.6C78.6 57.4 78 55 78 52V18.9H65.3V53c0 6 1.4 10.7 4.2 14.1M1.7 50.8C2.9 55.2 4.6 59 7 62.2c2.4 3.2 5.4 5.7 9 7.5 3.6 1.8 7.9 2.7 13 2.7 3.6 0 7-.4 10.1-1.3 3.1-.9 5.9-2.3 8.3-4.1 2.4-1.8 4.4-4.2 5.9-7 1.6-2.9 2.6-6.3 3.1-10.3H43.2c-.7 4.1-2.1 7-4.4 8.8-2.2 1.8-5.4 2.7-9.6 2.7-2.1 0-4-.4-5.9-1.1-1.8-.7-3.4-1.7-4.8-3s-2.4-2.8-3.2-4.6c-.8-1.8-1.2-3.7-1.2-5.8V25.5c0-2.2.4-4.2 1.1-5.9.7-1.8 1.7-3.3 3-4.5 1.3-1.2 2.8-2.2 4.7-2.9 1.8-.7 3.8-1 5.9-1 4 0 7.1.9 9.3 2.7 2.3 1.8 3.6 4.6 3.9 8.3h13.2c-.2-3.4-1-6.5-2.3-9.2-1.4-2.8-3.2-5.1-5.4-7-2.3-1.9-4.9-3.4-8-4.4-3-1-6.3-1.5-9.8-1.5-5 0-9.4.9-13.2 2.6-3.7 1.7-6.8 4.2-9.3 7.3-2.5 3.2-4.3 7-5.5 11.5C.6 25.9 0 30.9 0 36.4c0 5.2.6 10 1.7 14.4" fill="#000"/></svg>
